<?xml version="1.0" encoding="utf-8"?>
<!-- Generator: Adobe Illustrator 27.4.0, SVG Export Plug-In . SVG Version: 6.00 Build 0)  -->
<svg version="1.1" id="Calque_1" xmlns="http://www.w3.org/2000/svg" xmlns:xlink="http://www.w3.org/1999/xlink" x="0px" y="0px"
	 width="839.58px" height="264.93px" viewBox="0 0 839.58 264.93" enable-background="new 0 0 839.58 264.93" xml:space="preserve">
<g>
	<g>
		<g>
			<g>
				<path fill="#1D1D1B" d="M253.24,197.24c-5.91,0-8.08-3.49-8.08-8.9c0-4.67,1.94-8.75,8.16-8.75c1.45,0,3.34,0.3,4.61,0.69
					l-1.2,3.3c-1.1-0.46-2.19-0.97-3.43-0.97c-2.9,0-4.1,1.81-4.1,5.7c0,4.12,1.1,5.88,3.93,5.88c1.45,0,2.42-0.54,3.77-1.1
					l1.2,3.28C256.62,196.92,255.26,197.24,253.24,197.24z"/>
			</g>
		</g>
		<g>
			<g>
				<path fill="#1D1D1B" d="M267.74,197.24c-6.27,0-8.24-3.79-8.24-8.83c0-4.9,2.14-8.81,8.26-8.81c5.95,0,8.14,3.6,8.14,8.81
					C275.9,193.36,273.82,197.24,267.74,197.24z M267.74,182.63c-2.65,0-4.16,1.41-4.16,5.78c0,4.69,1.49,5.8,4.16,5.8
					c2.8,0,4.1-1.68,4.1-5.8C271.83,183.95,270.31,182.63,267.74,182.63z"/>
			</g>
		</g>
		<g>
			<g>
				<path fill="#1D1D1B" d="M295.22,196.71v-12.57L291,196.71h-4.22l-4.2-12.57v12.57h-3.79v-16.76h6.6l3.64,11.52l3.77-11.52h6.35
					v16.76H295.22z"/>
			</g>
		</g>
		<g>
			<g>
				<path fill="#1D1D1B" d="M309.58,190.43h-2.76v6.29h-3.93v-16.76h6.39c3.43,0,6.1,1.16,6.1,5.15
					C315.38,189.1,312.94,190.43,309.58,190.43z M309.24,182.98h-2.42v4.39h2.54c0.97,0,2.02-0.52,2.02-2.27
					C311.39,182.98,310.11,182.98,309.24,182.98z"/>
			</g>
		</g>
		<g>
			<g>
				<path fill="#1D1D1B" d="M318.05,196.71v-16.76h3.93v13.64h6.62v3.11H318.05z"/>
			</g>
		</g>
		<g>
			<g>
				<path fill="#1D1D1B" d="M330.18,196.71v-16.76h10.28v3.03h-6.35v3.55h5.8v3.03h-5.8v4.12h6.58v3.03
					C340.69,196.71,330.18,196.71,330.18,196.71z"/>
			</g>
		</g>
		<g>
			<g>
				<path fill="#1D1D1B" d="M353.98,196.71l-3.09-5.49l-3.47,5.49h-4.22l5.59-8.66l-4.92-8.12h4.54l2.69,4.67l2.9-4.67h4.22
					l-5.11,8.01l5.49,8.75h-4.63v0.02H353.98z"/>
			</g>
		</g>
		<g>
			<g>
				<path fill="#1D1D1B" d="M360.96,196.71v-16.76h10.28v3.03h-6.35v3.55h5.8v3.03h-5.8v4.12h6.58v3.03
					C371.47,196.71,360.96,196.71,360.96,196.71z"/>
			</g>
		</g>
		<g>
			<g>
				<path fill="#1D1D1B" d="M399.2,196.71l-1.34-4.22h-5.55l-1.41,4.22h-4.22l6.81-16.76h3.72l6.33,16.76H399.2z M395.18,184.2
					l-1.79,5.32h3.45L395.18,184.2z"/>
			</g>
		</g>
		<g>
			<g>
				<path fill="#1D1D1B" d="M412.69,197.24c-6.27,0-8.24-3.79-8.24-8.83c0-4.9,2.1-8.81,8.26-8.81c5.95,0,8.14,3.6,8.14,8.81
					C420.85,193.36,418.79,197.24,412.69,197.24z M412.69,182.63c-2.65,0-4.16,1.41-4.16,5.78c0,4.69,1.49,5.8,4.16,5.8
					c2.8,0,4.1-1.68,4.1-5.8C416.8,183.95,415.26,182.63,412.69,182.63z M417.47,200.94l-6.03-0.9l1.32-2.14l6.03,0.56
					L417.47,200.94z"/>
			</g>
		</g>
		<g>
			<g>
				<path fill="#1D1D1B" d="M431.2,197.24c-4.9,0-7.44-2.23-7.44-6.7v-10.58h3.93v10.3c0,3.49,1.89,3.93,3.49,3.93
					c1.64,0,3.15-0.97,3.15-3.93v-10.3h3.93v10.62C438.3,195.02,435.63,197.24,431.2,197.24z"/>
			</g>
		</g>
		<g>
			<g>
				<path fill="#1D1D1B" d="M452.93,196.71l-1.34-4.22h-5.55l-1.41,4.22h-4.22l6.81-16.76h3.72l6.33,16.76H452.93z M448.92,184.2
					l-1.79,5.32h3.45L448.92,184.2z"/>
			</g>
		</g>
		<g>
			<g>
				<path fill="#1D1D1B" d="M464.6,183.02v13.7h-3.97v-13.7h-4.44v-3.05h12.82v3.05H464.6z"/>
			</g>
		</g>
		<g>
			<g>
				<path fill="#1D1D1B" d="M470.65,196.71v-16.76h3.93v16.76H470.65z"/>
			</g>
		</g>
		<g>
			<g>
				<path fill="#1D1D1B" d="M485.41,197.24c-6.27,0-8.24-3.79-8.24-8.83c0-4.9,2.1-8.81,8.26-8.81c5.95,0,8.14,3.6,8.14,8.81
					C493.59,193.36,491.51,197.24,485.41,197.24z M485.41,182.63c-2.65,0-4.16,1.41-4.16,5.78c0,4.69,1.49,5.8,4.16,5.8
					c2.8,0,4.1-1.68,4.1-5.8C489.52,183.95,487.98,182.63,485.41,182.63z M490.19,200.94l-6.03-0.9l1.32-2.14l6.03,0.56
					L490.19,200.94z"/>
			</g>
		</g>
		<g>
			<g>
				<path fill="#1D1D1B" d="M503.91,197.24c-4.9,0-7.44-2.23-7.44-6.7v-10.58h3.93v10.3c0,3.49,1.89,3.93,3.49,3.93
					c1.64,0,3.15-0.97,3.15-3.93v-10.3h3.93v10.62C511.02,195.02,508.35,197.24,503.91,197.24z"/>
			</g>
		</g>
		<g>
			<g>
				<path fill="#1D1D1B" d="M514.83,196.71v-16.76h10.28v3.03h-6.35v3.55h5.8v3.03h-5.8v4.12h6.58v3.03
					C525.33,196.71,514.83,196.71,514.83,196.71z"/>
			</g>
		</g>
		<g>
			<g>
				<path fill="#1D1D1B" d="M550.02,196.71l-0.46-1.07c-0.56,0.76-2.17,1.49-3.03,1.49c-2.52,0-5.47-1.03-5.47-5.23
					c0-1.34,0.23-3.49,2.67-4.77c-0.65-0.52-2.14-1.47-2.14-3.26c0-2.35,1.45-4.37,5.04-4.37c3.19,0,5.04,1.53,5.04,4.35
					c0,2.08-3.13,3.53-4.81,4.25c-1.79,0.78-2.17,2-2.17,3.77c0,1.22,0.44,2.61,2.25,2.61c1.1,0,1.68-0.8,2.42-1.6v-1.47h-2.08
					v-2.48h5.59v4.16c0,1.1,0.46,2.99,0.52,3.64C553.4,196.71,550.02,196.71,550.02,196.71z M546.57,182.18
					c-1.1,0-1.49,0.8-1.49,1.68c0,0.86,0.69,1.43,1.07,1.83c0.97-0.44,2.02-0.97,2.02-1.87
					C548.14,183.15,547.91,182.18,546.57,182.18z"/>
			</g>
		</g>
		<g>
			<g>
				<path fill="#1D1D1B" d="M573.2,197.24c-1.45,0-3.87-0.44-5.28-0.82l1.2-3.28c1.24,0.46,2.76,1.1,4.12,1.1
					c2.14,0,3.45-0.23,3.45-1.79c0-3.23-8.75-2.12-8.75-8.12c0-3.38,3.64-4.71,6.7-4.71c1.14,0,3.32,0.3,4.69,0.76l-1.2,3.28
					c-0.97-0.42-1.92-1.01-3.53-1.01c-2.46,0-2.69,1.2-2.69,1.68c0,2.71,8.77,1.55,8.77,8.05
					C580.67,196.56,577.09,197.24,573.2,197.24z"/>
			</g>
		</g>
		<g>
			<g>
				<path fill="#1D1D1B" d="M590.38,190.43h-2.76v6.29h-3.93v-16.76h6.39c3.43,0,6.1,1.16,6.1,5.15
					C596.18,189.1,593.75,190.43,590.38,190.43z M590.04,182.98h-2.42v4.39h2.55c0.97,0,2.02-0.52,2.02-2.27
					C592.19,182.98,590.91,182.98,590.04,182.98z"/>
			</g>
		</g>
		<g>
			<g>
				<path fill="#1D1D1B" d="M608.44,196.71l-1.34-4.22h-5.55l-1.41,4.22h-4.22l6.81-16.76h3.72l6.33,16.76H608.44z M604.42,184.2
					l-1.79,5.32h3.45L604.42,184.2z"/>
			</g>
		</g>
		<g>
			<g>
				<path fill="#1D1D1B" d="M631.92,196.71h-4.09v-16.76h4.1c5.8,0,8.01,2.27,8.01,8.32C639.91,194.35,637.57,196.71,631.92,196.71z
					 M631.92,181.43h-2.21v13.81h2.44c3.93,0,5.8-2.1,5.8-6.94C637.96,183.06,636.27,181.43,631.92,181.43z"/>
			</g>
		</g>
		<g>
			<g>
				<path fill="#1D1D1B" d="M649.55,197.15c-4.56,0-6.43-2.14-6.43-6.62v-10.58h1.89v10.3c0,4.27,1.45,5.41,4.54,5.41
					c2.88,0,4.16-1.43,4.16-5.41v-10.3h1.89v10.62C655.61,195.02,653.68,197.15,649.55,197.15z"/>
			</g>
		</g>
		<g>
			<g>
				<path fill="#1D1D1B" d="M676.59,197.15c-5.59,0-7.04-4.31-7.04-8.83c0-5.15,2.04-8.66,7.28-8.66c1.18,0,2.67,0.32,3.87,0.63
					l-0.65,1.66c-1.01-0.44-2.04-0.8-3.19-0.8c-3.64,0-5.34,2.31-5.34,7.17c0,4.03,1.01,7.36,5.15,7.36c1.24,0,2.35-0.48,3.34-1.03
					v-4.71h-3.7v-1.49h5.43v7.28C680,196.58,678.7,197.15,676.59,197.15z"/>
			</g>
		</g>
		<g>
			<g>
				<path fill="#1D1D1B" d="M694.1,196.71l-5.51-7.48h-1.77v7.48h-1.89v-16.76h5.23c2.67,0,5.34,1.01,5.34,4.5
					c0,2.44-1.12,4.56-4.71,4.71l5.65,7.54L694.1,196.71L694.1,196.71z M690.3,181.43h-3.47v6.33h3.49c2.44,0,3.23-1.43,3.23-3.28
					C693.58,182.5,692.4,181.43,690.3,181.43z"/>
			</g>
		</g>
		<g>
			<g>
				<path fill="#1D1D1B" d="M710.08,196.71l-1.79-5h-6.89l-1.89,5h-2l6.81-16.76h1.55l6.33,16.76H710.08z M704.99,182.35l-3.05,7.95
					h5.84L704.99,182.35z"/>
			</g>
		</g>
		<g>
			<g>
				<path fill="#1D1D1B" d="M724.25,196.71l-7.91-14.52v14.52h-1.74v-16.76h2.69l7.84,14.52v-14.52h1.83v16.76H724.25z"/>
			</g>
		</g>
		<g>
			<g>
				<path fill="#1D1D1B" d="M735.21,196.71h-4.1v-16.76h4.1c5.8,0,8.01,2.27,8.01,8.32C743.21,194.35,740.88,196.71,735.21,196.71z
					 M735.21,181.43H733v13.81h2.44c3.93,0,5.8-2.1,5.8-6.94C741.24,183.06,739.56,181.43,735.21,181.43z"/>
			</g>
		</g>
		<g>
			<g>
				<path fill="#1D1D1B" d="M768.04,196.71l-1.79-5h-6.89l-1.89,5h-2l6.81-16.76h1.55l6.33,16.76H768.04z M762.96,182.35l-3.05,7.95
					h5.84L762.96,182.35z"/>
			</g>
		</g>
		<g>
			<g>
				<path fill="#1D1D1B" d="M781.75,196.71l-5.51-7.48h-1.77v7.48h-1.89v-16.76h5.23c2.67,0,5.34,1.01,5.34,4.5
					c0,2.44-1.12,4.56-4.71,4.71l5.65,7.54L781.75,196.71L781.75,196.71z M777.94,181.43h-3.47v6.33h3.49
					c2.44,0,3.23-1.43,3.23-3.28C781.2,182.5,780.02,181.43,777.94,181.43z"/>
			</g>
		</g>
		<g>
			<g>
				<path fill="#1D1D1B" d="M795.98,196.71l-5.51-7.48h-1.77v7.48h-1.89v-16.76h5.23c2.67,0,5.34,1.01,5.34,4.5
					c0,2.44-1.12,4.56-4.71,4.71l5.65,7.54L795.98,196.71L795.98,196.71z M792.18,181.43h-3.47v6.33h3.49
					c2.44,0,3.23-1.43,3.23-3.28C795.45,182.5,794.28,181.43,792.18,181.43z"/>
			</g>
		</g>
		<g>
			<g>
				<path fill="#1D1D1B" d="M811.96,196.71l-1.79-5h-6.89l-1.89,5h-2l6.81-16.76h1.55l6.33,16.76H811.96z M806.87,182.35l-3.05,7.95
					h5.84L806.87,182.35z"/>
			</g>
		</g>
		<g>
			<g>
				<path fill="#1D1D1B" d="M820.22,197.15c-1.45,0-3.09-0.36-4.5-0.76l0.65-1.66c1.24,0.46,2.52,0.93,3.89,0.93
					c2,0,4.14-0.67,4.14-3.26c0-2.25-2.08-2.9-4.22-3.68c-2.23-0.8-4.46-1.77-4.46-4.69c0-3.15,2.82-4.37,5.91-4.37
					c1.14,0,2.78,0.21,4.14,0.67l-0.65,1.66c-0.97-0.42-1.92-0.86-3.53-0.86c-2.37,0-3.93,0.93-3.93,2.9c0,1.66,1.53,2.31,3.3,2.95
					c2.48,0.88,5.38,1.77,5.38,5.36C826.34,196.1,823.5,197.15,820.22,197.15z"/>
			</g>
		</g>
	</g>
	<g>
		<g>
			<path fill="none" d="M58.78,86.42c-14.17-0.15-25.52,11.52-25.44,26.17c0.02,3.45,0.67,6.7,1.85,9.69
				c13.96-5.19,30.04-10.36,48.08-14.91C81.04,95.51,71.04,86.53,58.78,86.42z"/>
		</g>
	</g>
	<g>
		<g>
			<path fill="none" d="M169.02,84.8c-8.58-0.02-16.08,4.25-20.62,10.89c12.38-1.36,25.33-2.27,38.74-2.67
				C182.66,87.96,176.26,84.8,169.02,84.8z"/>
		</g>
	</g>
	<g>
		<g>
			<path fill="none" d="M418.04,113.11c0.4-14.59-10.79-26.55-24.95-26.7c-14.17-0.15-25.52,11.52-25.44,26.17
				c0.02,3.01,0.52,5.86,1.43,8.53c12.02,4.08,24.22,8.66,36.58,13.79C412.89,130.53,417.78,122.5,418.04,113.11z"/>
		</g>
	</g>
	<g>
		<g>
			<path fill="none" d="M670.49,85.9c-15.06,0.93-23.8,10.09-23.98,25.42c-0.09,6.77-0.13,13.54-0.15,20.31
				c17.49-7.57,34.33-13.77,50.71-17.97c-0.09-1.55-0.17-3.13-0.36-4.67C694.88,93.49,685.15,84.99,670.49,85.9z"/>
		</g>
	</g>
	<g>
		<g>
			<path fill="none" d="M780.97,86.42c-12.76-0.11-23.46,9.65-25.31,22.2c16.04,1.87,31.87,6.77,47.72,15.45
				c1.6-3.32,2.54-7.04,2.63-10.99C806.31,98.47,795.08,86.53,780.97,86.42z"/>
		</g>
	</g>
	<g>
		<g>
			<path fill="none" d="M564.27,84.7c-9.52,0.15-22.39,10.38-21.82,20.23c15.45,0,30.92,0,46.99,0
				C585.9,91.56,576.36,84.54,564.27,84.7z"/>
		</g>
	</g>
	<g>
		<g>
			<path fill="#06B5C1" d="M210.52,92.88c-2.9-0.06-5.8-0.09-8.66-0.09c-2.42,0-4.83,0.02-7.24,0.06c-1.03,0.02-2.06,0.04-3.09,0.06
				h-0.13c-1.43,0.02-2.86,0.06-4.27,0.11c-0.04-0.04-0.06-0.06-0.09-0.11h-0.02c-2.1-2.35-4.63-4.29-7.46-5.68c0,0,0,0-0.02,0
				c-3.17-1.55-6.75-2.42-10.53-2.44c-7.3-0.02-13.79,3.07-18.38,8.08c-0.82,0.88-1.57,1.83-2.25,2.82
				c-7.93,0.86-15.6,1.92-23.06,3.09c0.04-0.19,0.09-0.38,0.15-0.54c0.59-2.31,1.36-4.54,2.27-6.68c0.97-2.25,2.08-4.42,3.38-6.48
				c1.7-2.76,3.7-5.3,5.91-7.59c3.64-3.75,7.88-6.81,12.59-9.08c0.02-0.02,0.04-0.02,0.06-0.02c5.19-2.48,10.95-3.97,17.07-4.22
				c0.28-0.02,0.56-0.04,0.84-0.04c7.13-0.19,13.85,1.26,19.84,4.05c3.7,1.72,7.15,3.95,10.21,6.62c2.29,1.96,4.39,4.16,6.29,6.58
				c1.68,2.19,3.19,4.54,4.5,7.04C209.22,89.85,209.91,91.35,210.52,92.88z"/>
		</g>
	</g>
	<g>
		<g>
			<path fill="#06B5C1" d="M438.05,148.59c-0.02,0.3,0,0.61,0,0.9c-0.52-0.26-1.07-0.52-1.6-0.76c-2.9-1.41-5.78-2.78-8.66-4.08
				c-0.02-0.02-0.04-0.02-0.04-0.02c-0.46-0.23-0.9-0.44-1.34-0.61c-3.75-1.74-7.48-3.43-11.2-5.02h-0.02
				c-0.02,0-0.02-0.02-0.04-0.02c-3.17-1.41-6.33-2.73-9.48-4.05c0.8-0.48,1.57-1.03,2.33-1.6c1.47-1.16,2.82-2.46,4.01-3.91
				c1.01-1.2,1.89-2.5,2.67-3.89c0.78-1.39,1.43-2.86,1.94-4.42c0.48-1.34,0.84-2.78,1.05-4.22c0.23-1.24,0.34-2.5,0.38-3.79
				c0-0.28,0.02-0.56,0-0.84c0-1.51-0.13-3.01-0.4-4.44c-0.26-1.66-0.69-3.28-1.26-4.81c-0.63-1.66-1.41-3.23-2.33-4.71
				c-1.3-2.1-2.88-3.97-4.71-5.61c-4.35-3.85-10.01-6.2-16.25-6.27c-2.17-0.02-4.25,0.23-6.25,0.73c-2.95,0.71-5.68,1.98-8.1,3.66
				c-1.7,1.18-3.28,2.56-4.65,4.14c-1.22,1.39-2.29,2.92-3.19,4.59c-0.78,1.41-1.43,2.9-1.94,4.46c-0.48,1.49-0.84,3.05-1.05,4.67
				c-0.19,1.28-0.28,2.61-0.28,3.93v0.49c0.04,1.57,0.21,3.11,0.52,4.61c0.21,1.18,0.52,2.33,0.9,3.45
				c-2.88-0.97-5.74-1.92-8.6-2.84c-3.26-1.05-6.5-2.06-9.74-3.03c-1.07-0.34-2.12-0.65-3.19-0.97c-0.02-0.84-0.04-1.68,0-2.52
				c0.02-1.62,0.13-3.26,0.32-4.85c0.17-1.49,0.4-2.99,0.71-4.46c0.36-1.72,0.82-3.43,1.36-5.09c0.5-1.6,1.12-3.15,1.81-4.69
				c0.8-1.83,1.75-3.6,2.8-5.3c1.03-1.72,2.19-3.36,3.47-4.92c0.21-0.28,0.44-0.54,0.67-0.82c1.36-1.6,2.82-3.11,4.33-4.44
				c0,0,0-0.02,0.02-0.02c12.17-11.14,28.55-14.78,44.02-9.48c9.5,3.23,17.51,9.71,23,18.08c0.34,0.5,0.65,1.03,0.97,1.55
				c4.05,6.75,6.48,14.61,6.77,22.98c0.32,9.74,0.19,19.47,0.19,29.22c0,1.55,0,3.09,0.02,4.65
				C438.01,145.66,438.01,147.12,438.05,148.59z"/>
		</g>
	</g>
	<g>
		<g>
			<path fill="#06B5C1" d="M826.04,126.75c0,2.12,0,4.25-0.02,6.37c-0.02,1.98-0.04,3.95-0.09,5.93c-2.39-1.85-4.77-3.62-7.15-5.3
				c-1.39-0.99-2.78-1.94-4.14-2.84c-1.72-1.14-3.45-2.23-5.15-3.28c-0.02-0.02-0.04-0.02-0.04-0.02c-2.04-1.24-4.05-2.42-6.08-3.53
				c0.42-0.86,0.8-1.77,1.12-2.69c0.17-0.48,0.34-0.99,0.48-1.49c0.09-0.36,0.19-0.71,0.28-1.07c0.06-0.28,0.15-0.56,0.19-0.86
				c0.08-0.38,0.17-0.76,0.21-1.14c0.11-0.56,0.17-1.14,0.23-1.7c0-0.02,0-0.02,0-0.04c0.07-0.67,0.11-1.34,0.13-2.01
				c0.3-14.59-10.93-26.53-25.04-26.65h-0.52c-0.46,0-0.9,0.02-1.36,0.06c-0.08,0-0.19,0-0.3,0.02c-0.5,0.02-1.01,0.09-1.51,0.17
				c-0.38,0.04-0.76,0.11-1.12,0.19c-0.38,0.06-0.76,0.15-1.16,0.26c-0.73,0.17-1.47,0.38-2.19,0.63c-0.36,0.11-0.69,0.23-1.05,0.38
				c-0.23,0.09-0.44,0.19-0.67,0.28c-0.82,0.36-1.6,0.73-2.37,1.18c-0.65,0.36-1.3,0.76-1.92,1.2c-0.32,0.21-0.63,0.42-0.93,0.65
				c-0.44,0.34-0.88,0.67-1.3,1.05c-0.44,0.36-0.84,0.73-1.24,1.14c-0.28,0.26-0.54,0.52-0.8,0.8c-0.52,0.54-1.01,1.12-1.47,1.7
				c-0.23,0.3-0.46,0.59-0.67,0.9c-0.38,0.5-0.71,1.01-1.03,1.53c-0.19,0.28-0.36,0.56-0.52,0.88c-0.11,0.19-0.21,0.38-0.32,0.56
				c-0.15,0.28-0.3,0.54-0.42,0.84c-0.09,0.15-0.17,0.3-0.21,0.44c-0.17,0.3-0.3,0.61-0.42,0.93c-0.15,0.32-0.28,0.63-0.4,0.97
				c-0.23,0.65-0.46,1.3-0.65,1.98c0,0.02,0,0.02-0.02,0.04c-0.15,0.48-0.28,0.99-0.38,1.49c-0.02,0.13-0.06,0.23-0.06,0.34
				c-0.13,0.52-0.21,1.07-0.3,1.6c-6.58-0.76-13.2-1.03-19.87-0.82c0.15-1.62,0.38-3.19,0.67-4.77c4.5-23.12,25.61-40.7,50.83-37.12
				c9.21,1.3,17.79,5.72,24.47,12.19c1.96,1.89,3.75,3.97,5.36,6.22c1.32,1.83,2.5,3.79,3.55,5.8c1.01,1.98,1.87,4.03,2.56,6.16
				c0.65,1.89,1.14,3.87,1.51,5.86c0.23,1.34,0.42,2.69,0.52,4.08c0.06,0.73,0.13,1.47,0.15,2.21c0.17,1.98,0.28,3.97,0.34,5.95
				v0.02c0.11,2.12,0.17,4.22,0.19,6.35C826.02,122.75,826.04,124.75,826.04,126.75z"/>
		</g>
	</g>
	<g>
		<g>
			<path fill="#06B5C1" d="M542.91,151.49c17.32,10.58,40.63,7.84,52.81-6.66c-2.84-2.65-5.95-5.15-8.55-8.1
				c-3.4-3.83-6.12-4.81-11.4-2.04c-12.8,6.79-27.04,0.21-33.32-15.39c3.26-0.15,5.68-0.38,8.12-0.38
				c14.59-0.04,29.16-0.02,43.75-0.02c18.59,0,19.84-1.66,15.16-20.12c-0.13-0.48-0.32-0.95-0.46-1.43
				c-5.97-19.98-23.51-33.44-43.46-33.36c-19.67,0.09-37.72,13.9-42.99,32.92C516.59,118.4,524.83,140.47,542.91,151.49z
				 M564.27,84.7c12.09-0.19,21.63,6.85,25.19,20.23c-16.06,0-31.54,0-46.99,0C541.88,95.09,554.75,84.85,564.27,84.7z"/>
		</g>
	</g>
	<g>
		<g>
			<path fill="#06B5C1" d="M716.14,109.68c-6.29,0.99-12.65,2.33-19.07,3.97c-0.09-1.55-0.17-3.13-0.36-4.67
				c-0.04-0.28-0.06-0.54-0.11-0.82c-0.02-0.19-0.04-0.38-0.09-0.54c-0.06-0.46-0.13-0.9-0.23-1.32c-0.04-0.32-0.13-0.63-0.19-0.95
				c-0.11-0.46-0.21-0.9-0.32-1.34c-0.11-0.44-0.23-0.88-0.36-1.3c-0.21-0.67-0.44-1.34-0.67-1.98c-0.17-0.42-0.34-0.82-0.5-1.22
				c-0.19-0.44-0.4-0.88-0.61-1.3c-0.23-0.46-0.48-0.93-0.73-1.36c-0.15-0.26-0.28-0.48-0.44-0.71c-0.19-0.32-0.38-0.61-0.59-0.9
				c-0.11-0.15-0.19-0.28-0.3-0.4c-0.19-0.28-0.4-0.54-0.61-0.8c-0.3-0.36-0.59-0.69-0.88-1.03c-0.28-0.32-0.56-0.61-0.86-0.9
				c-0.52-0.52-1.07-1.01-1.64-1.45c-0.28-0.21-0.52-0.4-0.8-0.61c-0.34-0.23-0.65-0.44-0.99-0.65c-1.24-0.8-2.56-1.45-3.99-1.98
				c-3.32-1.22-7.11-1.74-11.31-1.49c-0.61,0.04-1.22,0.11-1.81,0.17h-0.13c-0.06,0-0.15,0.02-0.21,0.02
				c-0.38,0.04-0.73,0.11-1.12,0.17c-0.56,0.09-1.14,0.17-1.68,0.3c-0.44,0.09-0.86,0.19-1.28,0.3c-0.3,0.09-0.59,0.15-0.86,0.23
				c-0.3,0.06-0.56,0.15-0.84,0.26c-0.48,0.15-0.97,0.32-1.43,0.5c-0.4,0.15-0.78,0.3-1.14,0.46h-0.02
				c-0.36,0.17-0.71,0.34-1.07,0.52c-0.44,0.21-0.88,0.44-1.3,0.69c-0.44,0.26-0.86,0.52-1.26,0.8c-0.09,0.06-0.15,0.11-0.21,0.15
				c-0.54,0.38-1.07,0.78-1.57,1.22c-0.28,0.23-0.54,0.46-0.82,0.73c-0.28,0.26-0.54,0.5-0.8,0.8c-0.5,0.52-0.99,1.1-1.43,1.68
				c0,0.02-0.02,0.02-0.02,0.02c-0.44,0.59-0.86,1.2-1.24,1.85c-0.23,0.36-0.44,0.73-0.63,1.12c-0.15,0.26-0.28,0.5-0.4,0.76
				c-0.15,0.32-0.3,0.65-0.44,0.99c-0.21,0.46-0.38,0.93-0.54,1.39c-0.19,0.54-0.36,1.1-0.52,1.66c-0.02,0.06-0.04,0.13-0.04,0.21
				c-0.13,0.42-0.26,0.84-0.34,1.28c-0.11,0.38-0.17,0.76-0.23,1.16c-0.06,0.23-0.11,0.48-0.13,0.71c-0.06,0.4-0.15,0.8-0.19,1.22
				c-0.04,0.4-0.09,0.82-0.13,1.26c-0.02,0.15-0.02,0.32-0.04,0.46c0,0.11-0.02,0.21-0.02,0.34v0.11c-0.02,0.23-0.04,0.48-0.04,0.71
				c-0.02,0.38-0.02,0.78-0.04,1.18c-0.02,1.22-0.04,2.44-0.04,3.66c-0.04,2.12-0.04,4.22-0.06,6.35c-0.02,2.02-0.02,4.01-0.04,6.03
				c0,1.43-0.02,2.84-0.02,4.27c-1.32,0.56-2.65,1.16-3.99,1.77h-0.02c-3.36,1.47-6.75,3.01-10.15,4.59
				c-1.68,0.76-3.36,1.53-5.04,2.33v-72.2h18.77c0.19,1.14,0.4,2.31,0.63,3.7c0.21,1.24,0.46,2.65,0.73,4.31
				c1.43-1.53,2.92-2.9,4.46-4.1c9.06-7.04,19.61-8.05,30.88-6.5c2.61,0.36,5.09,0.88,7.44,1.55c3.07,0.86,5.91,2,8.49,3.4
				c2.5,1.36,4.77,2.99,6.75,4.85c1.6,1.51,3.01,3.19,4.2,5.04c1.22,1.81,2.25,3.77,3.05,5.91c0.71,1.79,1.26,3.7,1.64,5.72
				c0.19,0.86,0.34,1.77,0.46,2.67c0.17,1.2,0.32,2.37,0.44,3.58c0.23,1.98,0.44,3.93,0.61,5.91
				C715.86,106,716.01,107.85,716.14,109.68z"/>
		</g>
	</g>
	<g>
		<g>
			<path fill="#06B5C1" d="M257.99,96.01c-6.64-0.73-13.2-1.36-19.67-1.83c0-1.66,0-3.3,0.02-4.94c0-1.98,0.02-3.93,0.02-5.86
				c0-2.19,0.02-4.37,0.02-6.52c0.02-1.98,0.02-3.93,0.02-5.86v-1.73c1.28-1.12,1.45-1.39,1.66-1.41c4.48-0.59,7.82-1.05,10.32-1.1
				c1.68-0.04,2.97,0.11,3.97,0.52c2.12,0.84,2.95,2.84,3.28,6.68c0.15,1.64,0.21,3.64,0.26,6.01c0.02,0.86,0.02,1.79,0.04,2.78
				c0.02,1.2,0.02,2.39,0.02,3.6c0.02,2.02,0.02,4.01,0.02,6.03C257.99,93.59,257.99,94.81,257.99,96.01z"/>
		</g>
	</g>
	<g>
		<g>
			<path fill="#06B5C1" d="M328.8,81.72c0,2.12,0.02,4.25,0.04,6.39c0,1.98,0.02,3.97,0.02,5.97c0.02,2.14,0,4.27-0.04,6.41
				c-0.02,2-0.06,3.99-0.17,5.99c-0.02,0.86-0.06,1.72-0.11,2.59c-2.08-0.52-4.16-1.05-6.22-1.55c-0.17-0.04-0.34-0.09-0.5-0.13
				c-1.85-0.46-3.68-0.9-5.51-1.3c-0.15-0.04-0.3-0.09-0.46-0.11c-1.98-0.48-3.97-0.93-5.95-1.34c-0.44-0.11-0.86-0.21-1.3-0.3
				c0.06-2,0.13-3.99,0.19-5.97c0.04-1.96,0.09-3.89,0.13-5.84c0.06-2.21,0.09-4.42,0.11-6.62c0.04-1.94,0.04-3.87,0.04-5.8
				c0-1.87-0.02-3.75-0.04-5.59c0-0.36,0-0.67,0.02-0.99c0.17-4.92,2.25-6.35,7.44-6.18c8.55,0.28,11.33-0.21,12.15,2.02
				c0.46,1.18,0.34,3.13,0.26,6.37c-0.04,1.18-0.09,2.52-0.09,4.08V81.72L328.8,81.72z"/>
		</g>
	</g>
	<g>
		<g>
			<path fill="#06B5C1" d="M481.48,119.47c0.02-21.02,4.81-27.14,25.06-31.97c0-6.56,0-13.12,0-19.87
				c-10.77-0.5-17.87,5.09-25.19,13.62c0-5.55,0-9.16,0-13.01c-6.83,0-12.95,0-19.43,0c0,29.71,0,58.76,0,88.33
				c6.5,0,12.63,0,19.55,0C481.48,143.55,481.46,131.5,481.48,119.47z"/>
		</g>
	</g>
	<g>
		<g>
			<path fill="#06B5C1" d="M102.66,102.95c-0.11,0.02-0.23,0.04-0.34,0.06c-0.02,0-0.02,0-0.04,0c-6.52,1.36-12.89,2.82-19,4.37
				c-0.09-0.42-0.17-0.84-0.28-1.26s-0.21-0.82-0.34-1.24c-0.13-0.48-0.3-0.97-0.46-1.43c-0.15-0.46-0.34-0.93-0.52-1.39
				c-0.21-0.5-0.44-1.01-0.69-1.51c-0.19-0.38-0.4-0.78-0.61-1.16c-1.14-2.06-2.56-3.95-4.2-5.59c-0.42-0.44-0.86-0.84-1.32-1.24
				c-0.02-0.02-0.04-0.04-0.06-0.06c-0.44-0.38-0.9-0.76-1.36-1.1c-0.11-0.09-0.21-0.17-0.32-0.23c-0.82-0.61-1.7-1.18-2.61-1.66
				c-0.06-0.04-0.11-0.09-0.17-0.11c-0.32-0.17-0.65-0.36-0.99-0.5c-0.28-0.15-0.56-0.28-0.84-0.4c-0.99-0.44-2.02-0.82-3.09-1.12
				c-0.34-0.11-0.69-0.19-1.05-0.28c-0.86-0.21-1.72-0.38-2.63-0.48c-0.36-0.06-0.71-0.09-1.1-0.13c-0.61-0.04-1.22-0.09-1.85-0.09
				c-0.46,0-0.93,0-1.39,0.04c-0.02,0-0.02,0-0.04,0c-0.36,0.02-0.71,0.04-1.07,0.06c-0.36,0.04-0.71,0.06-1.07,0.13
				c-0.28,0.02-0.54,0.06-0.8,0.11c-0.34,0.06-0.67,0.13-1.01,0.19c-0.38,0.09-0.73,0.17-1.1,0.28c-1.14,0.28-2.23,0.65-3.28,1.1
				c0,0-0.02,0-0.04,0.02c-0.48,0.19-0.97,0.42-1.45,0.65s-0.97,0.5-1.45,0.78c-0.46,0.28-0.93,0.54-1.36,0.86
				c-0.78,0.52-1.53,1.1-2.25,1.7c-0.26,0.21-0.5,0.44-0.76,0.67c-0.13,0.11-0.26,0.23-0.36,0.34c-0.23,0.21-0.46,0.44-0.67,0.67
				c-0.67,0.69-1.28,1.43-1.87,2.19c-0.71,0.93-1.39,1.92-1.98,2.95c-0.02,0.04-0.06,0.11-0.11,0.17c-0.28,0.48-0.52,0.99-0.78,1.51
				c-0.28,0.54-0.5,1.12-0.73,1.68c-0.19,0.5-0.38,1.03-0.54,1.55c-0.34,1.01-0.61,2.06-0.82,3.13c0,0.04,0,0.09-0.02,0.15
				c-0.11,0.54-0.19,1.1-0.26,1.66c-0.06,0.44-0.11,0.86-0.15,1.3c-0.02,0.28-0.04,0.54-0.04,0.82c-0.04,0.48-0.04,0.97-0.04,1.47
				c0,0.82,0.04,1.62,0.13,2.42c0.02,0.32,0.06,0.61,0.11,0.9c0,0.17,0.02,0.32,0.06,0.46c0.02,0.3,0.09,0.59,0.13,0.88
				c0.04,0.21,0.06,0.4,0.13,0.59c0.04,0.34,0.13,0.65,0.21,0.97c0.09,0.4,0.19,0.8,0.32,1.18c0.13,0.44,0.26,0.86,0.4,1.28
				c0.13,0.34,0.26,0.67,0.38,1.01c-4.75,1.77-9.25,3.53-13.5,5.26c-1.81,0.73-3.58,1.47-5.28,2.21c-0.34-0.86-0.63-1.72-0.93-2.59
				c-0.65-2.02-1.16-4.1-1.51-6.18c-0.38-2.12-0.61-4.27-0.69-6.43c-0.09-2-0.04-3.99,0.11-5.97c0.19-2.1,0.48-4.2,0.95-6.29
				c0.42-2,0.97-3.95,1.64-5.88c0.73-2.1,1.62-4.16,2.65-6.16c1.05-2.04,2.25-3.99,3.62-5.86c0.67-0.95,1.39-1.85,2.14-2.73
				c1.07-1.26,2.21-2.46,3.38-3.58c2.56-2.5,5.36-4.65,8.3-6.41c8.97-5.44,19.4-7.48,29.74-5.73h0.02c2.33,0.42,4.63,1.01,6.94,1.79
				c1.14,0.4,2.27,0.82,3.36,1.32c2.99,1.28,5.78,2.92,8.38,4.83c2.1,1.55,4.05,3.28,5.86,5.17c1.74,1.83,3.34,3.81,4.79,5.91
				c1.26,1.85,2.39,3.79,3.4,5.82c0.99,2,1.83,4.08,2.52,6.22C101.75,98.93,102.28,100.93,102.66,102.95z"/>
		</g>
	</g>
	<g>
		<path fill="#FAB200" d="M360.47,118.3c-4.83,0.59-8.98,1.49-12.28,2.35c-0.28-1.53-0.46-3.07-0.54-4.63c0.97-0.26,2-0.5,3.09-0.76
			C353.98,116.23,357.22,117.24,360.47,118.3z"/>
		<path fill="none" d="M350.75,115.27c-1.1,0.26-2.12,0.5-3.09,0.76c-0.06-0.56-0.09-1.16-0.11-1.72
			C348.62,114.62,349.67,114.93,350.75,115.27z"/>
		<path fill="#FAB200" d="M371.7,126.66h-0.34c-8.45,0-15.53,1.2-20.9,2.48c-0.56-1.45-1.03-2.92-1.41-4.42
			c5.23-1.26,12.11-2.5,20.37-2.65C370.02,123.7,370.8,125.23,371.7,126.66z"/>
		<path fill="none" d="M369.43,122.08c-8.26,0.15-15.14,1.39-20.37,2.65c-0.36-1.34-0.65-2.71-0.86-4.08
			c3.3-0.86,7.44-1.77,12.28-2.35c2.86,0.93,5.72,1.87,8.6,2.84C369.18,121.45,369.28,121.77,369.43,122.08z"/>
		<path fill="#FAB200" d="M382.91,136.46c-3.49-0.46-7.36-0.76-11.54-0.76c-6.52,0-12.21,0.71-16.94,1.62
			c-0.52-0.86-1.03-1.74-1.51-2.67c-0.28-0.52-0.54-1.05-0.78-1.57c5.21-1.1,11.69-2,19.24-2c1.32,0,2.63,0.02,3.89,0.09
			C377.46,133.39,380.05,135.19,382.91,136.46z"/>
		<path fill="none" d="M371.37,131.08c-7.54,0-14.02,0.9-19.24,2c-0.63-1.28-1.2-2.61-1.66-3.93c5.36-1.28,12.45-2.48,20.9-2.48
			h0.34c1.01,1.64,2.21,3.15,3.55,4.5C374,131.1,372.69,131.08,371.37,131.08z"/>
		<path fill="#FAB200" d="M438.07,151.05c0.02,0.84-0.02,1.57-0.15,2.21c-2.17,0.21-4.48,0.36-6.89,0.4
			c-0.76,0.04-1.53,0.04-2.31,0.04s-1.55,0-2.31-0.04c-3.51-0.06-6.77-0.34-9.76-0.73c0.02-0.78,0.04-1.55,0.06-2.33
			c-1.18,0.65-2.33,1.26-3.49,1.83h-0.02c-5.99-1.01-10.68-2.35-13.81-3.28c-5.23-1.53-15.01-4.39-28.03-4.39
			c-3.97,0-7.67,0.28-11.01,0.69c-1.18-1.3-2.29-2.71-3.36-4.2c4.2-0.65,9.04-1.12,14.38-1.12c13.68,0,23.86,2.99,29.32,4.59
			c5.23,1.51,15.01,4.37,28.03,4.37c2.71,0,5.3-0.13,7.74-0.34c0.52,0.23,1.07,0.5,1.6,0.76
			C438.07,150.02,438.05,150.53,438.07,151.05z"/>
		<path fill="#FAB200" d="M406.39,155.29c-2.95,1.07-5.82,1.87-8.64,2.39c-5.53-1.57-14.63-3.91-26.39-3.91c-0.26,0-0.5,0-0.76,0.02
			h-0.08c-2.17-1.24-4.14-2.69-6.1-4.37c2.19-0.17,4.52-0.26,6.94-0.26c13.66,0,23.84,2.97,29.32,4.56
			C402.2,154.18,404.12,154.73,406.39,155.29z"/>
		<path fill="none" d="M371.37,153.78c11.75,0,20.85,2.33,26.39,3.91c-9.99,1.94-19.22,0.59-27.14-3.89
			C370.86,153.78,371.11,153.78,371.37,153.78z"/>
		<path fill="none" d="M413.2,152.41c-2.31,1.12-4.59,2.08-6.81,2.88c-2.27-0.56-4.18-1.12-5.7-1.55
			c-5.49-1.6-15.66-4.56-29.32-4.56c-2.42,0-4.75,0.09-6.94,0.26c-1.43-1.2-2.78-2.54-4.08-3.99c3.34-0.42,7.04-0.69,11.01-0.69
			c13.01,0,22.79,2.86,28.03,4.39C402.52,150.06,407.21,151.41,413.2,152.41z"/>
		<path fill="#FAB200" d="M427.75,144.63c-0.46,0.02-0.9,0-1.34-0.02c-12.53-0.3-21.87-3.01-27.02-4.52
			c-1.51-0.46-3.43-1.01-5.7-1.57c3.3-0.11,6.46-0.88,9.29-2.19c3.09,0.84,7.19,1.89,12.15,2.65c0.02,0,0.02,0.02,0.04,0.02h0.02
			c3.72,1.6,7.46,3.28,11.2,5.02C426.85,144.2,427.28,144.41,427.75,144.63z"/>
		<path fill="none" d="M415.13,138.98c-4.96-0.76-9.06-1.81-12.15-2.65c0.93-0.42,1.81-0.88,2.67-1.41
			C408.81,136.25,411.96,137.57,415.13,138.98z"/>
		<path fill="none" d="M436.45,148.74c-2.44,0.21-5.02,0.34-7.74,0.34c-13.01,0-22.79-2.86-28.03-4.37
			c-5.47-1.6-15.64-4.59-29.32-4.59c-5.34,0-10.17,0.46-14.38,1.12c-0.9-1.24-1.74-2.54-2.56-3.91c4.73-0.9,10.43-1.62,16.94-1.62
			c4.18,0,8.05,0.3,11.54,0.76c0.02,0,0.02,0.02,0.04,0.02c2.95,1.28,6.18,2.02,9.61,2.06c0.36,0,0.71,0,1.1-0.02
			c0.02,0,0.02,0,0.04,0c2.27,0.56,4.18,1.12,5.7,1.57c5.15,1.51,14.48,4.22,27.02,4.52c0.44,0.02,0.88,0.04,1.34,0.02
			c0,0,0.02,0,0.04,0.02C430.67,145.96,433.55,147.32,436.45,148.74z"/>
		<path fill="none" d="M437.92,153.26c-0.5,3.03-2.42,4.08-6.08,3.77c-2.23-0.17-4.67,0.48-6.75-0.15
			c-2.95-0.88-5.63-2.59-8.45-3.95c2.99,0.4,6.25,0.67,9.76,0.73c0.76,0.04,1.53,0.04,2.31,0.04s1.55,0,2.31-0.04
			C433.44,153.61,435.76,153.46,437.92,153.26z"/>
	</g>
	<g>
		<path fill="#FAB200" d="M755.66,108.63c-0.13,0.93-0.23,1.85-0.28,2.8c-5.63-1.05-12.26-1.89-19.72-2.04
			c0.04-0.52,0.09-1.05,0.13-1.57C742.45,107.59,749.08,107.87,755.66,108.63z"/>
		<path fill="#FAB200" d="M758.18,124.33c-6.01-1.24-13.31-2.33-21.7-2.56c-0.4-2.14-0.67-4.25-0.8-6.35
			c7.61,0.15,14.34,0.97,20.14,2.02C756.29,119.85,757.09,122.18,758.18,124.33z"/>
		<path fill="none" d="M755.83,117.44c-5.8-1.05-12.53-1.87-20.14-2.02c-0.15-2.04-0.15-4.05-0.02-6.03
			c7.46,0.15,14.09,0.99,19.72,2.04c-0.02,0.4-0.04,0.8-0.04,1.2C755.34,114.26,755.51,115.88,755.83,117.44z"/>
		<path fill="#FAB200" d="M825.94,139.15c-0.04,2.12-0.06,4.25-0.13,6.37c-3.47,0.42-7.21,0.69-11.16,0.78
			c-1.05,0.02-2.1,0.04-3.17,0.04s-2.12-0.02-3.17-0.04c-17.13-0.42-29.92-4.14-36.98-6.2c-6.1-1.79-16.63-4.85-30.55-5.76
			c-1.05-2.06-1.96-4.22-2.69-6.48c10.15,0.4,18.69,1.96,25.33,3.55c4.48,4.37,10.51,7.06,17.09,7.11c2.37,0.02,4.69-0.3,6.87-0.9
			c6.64,1.32,14.76,2.39,24.09,2.39C816.69,140.01,821.52,139.67,825.94,139.15z"/>
		<path fill="none" d="M763.41,131.42c-6.64-1.6-15.18-3.15-25.33-3.55c-0.06-0.17-0.11-0.34-0.17-0.5
			c-0.59-1.87-1.07-3.75-1.43-5.59c8.38,0.23,15.68,1.32,21.7,2.56C759.53,126.98,761.29,129.37,763.41,131.42z"/>
		<path fill="#FAB200" d="M803.08,152.1c-3.89,1.66-7.69,3.6-11.63,5.06h-0.04c-8.79-1.39-15.6-3.38-20.1-4.69
			c-4.52-1.32-11.48-3.34-20.43-4.69c-2.29-2.12-4.42-4.5-6.29-7.11c12.89,1.16,22.64,3.99,28.48,5.7
			C779.1,148.14,789.44,151.15,803.08,152.1z"/>
		<path fill="#FAB200" d="M774.35,159.15c-3.55-0.44-7.04-1.43-10.38-2.84c3.68,0.88,6.72,1.77,9.12,2.46
			C773.49,158.89,773.91,159,774.35,159.15z"/>
		<path fill="none" d="M791.42,157.17c-2.04,0.73-4.12,1.34-6.22,1.72c-3.62,0.63-7.24,0.69-10.81,0.26c-0.02,0-0.02,0-0.04,0
			c-0.44-0.15-0.86-0.26-1.26-0.38c-2.39-0.69-5.45-1.57-9.12-2.46c-0.02,0-0.02-0.02-0.04-0.02c-4.73-2-9.14-4.87-13.03-8.49
			c8.96,1.34,15.92,3.36,20.43,4.69C775.82,153.78,782.63,155.78,791.42,157.17z"/>
		<path fill="#FAB200" d="M825.7,151.55v0.65c-0.02,1.62-2.88,3.79-4.87,4.61c-1.79,0.73-4.08,0.3-6.18,0.21
			c-0.19-0.02-0.36-0.02-0.52-0.02c-2.95-0.02-4.69-0.02-5.82-0.42c-1.51-0.5-2-1.66-2.82-4.33c1.94,0.11,3.93,0.15,5.99,0.15
			C816.6,152.39,821.35,152.08,825.7,151.55z"/>
		<path fill="none" d="M825.81,145.52c-0.02,2.02-0.06,4.03-0.11,6.03c-4.35,0.52-9.1,0.84-14.23,0.84c-2.06,0-4.05-0.04-5.99-0.15
			c-0.08-0.32-0.19-0.67-0.3-1.03c-0.69,0.28-1.39,0.56-2.1,0.88c-13.64-0.95-23.98-3.95-30-5.72c-5.84-1.7-15.6-4.54-28.48-5.7
			v-0.02c-1.43-2-2.71-4.1-3.83-6.33c13.92,0.9,24.45,3.97,30.55,5.76c7.07,2.06,19.84,5.78,36.98,6.2c1.05,0.02,2.1,0.04,3.17,0.04
			s2.12-0.02,3.17-0.04C818.6,146.22,822.34,145.94,825.81,145.52z"/>
		<path fill="#FAB200" d="M818.79,133.75c-1.34,0.09-2.73,0.15-4.14,0.17c-1.03,0.02-2.1,0.04-3.17,0.04s-2.12-0.02-3.17-0.04
			c-4.29-0.11-8.32-0.42-12.04-0.86c2.06-1.64,3.87-3.62,5.34-5.82c2.5,0.21,5.13,0.34,7.86,0.38c0,0,0.02,0,0.04,0.02
			c1.7,1.05,3.43,2.14,5.15,3.28C816.01,131.81,817.4,132.76,818.79,133.75z"/>
		<path fill="none" d="M809.45,127.61c-2.73-0.04-5.36-0.17-7.86-0.38c0.65-1.01,1.26-2.06,1.79-3.15
			C805.4,125.19,807.41,126.37,809.45,127.61z"/>
		<path fill="none" d="M825.94,139.05v0.11c-4.42,0.52-9.25,0.86-14.46,0.86c-9.33,0-17.45-1.07-24.09-2.39
			c3.28-0.9,6.29-2.46,8.87-4.56c3.72,0.44,7.76,0.76,12.04,0.86c1.05,0.02,2.1,0.04,3.17,0.04s2.14-0.02,3.17-0.04
			c1.41-0.02,2.8-0.09,4.14-0.17C821.17,135.43,823.54,137.19,825.94,139.05z"/>
	</g>
	<g>
		<path fill="#FAB200" d="M646.26,152.12c0,0.73-0.02,1.47-0.02,2.21c0,0.48-0.28,0.97-0.61,2.12h-15.39
			c-1.07-0.21-2.1-0.42-3.11-0.63v-6.52C632.42,150.53,638.86,151.61,646.26,152.12z"/>
		<path fill="none" d="M627.13,155.82c1.01,0.21,2.04,0.42,3.11,0.63h-3.11V155.82z"/>
		<path fill="#FAB200" d="M646.32,139.74c-0.02,2.12-0.02,4.22-0.04,6.35c-7.34-0.46-13.77-1.49-19.15-2.65v-3.13
			c1.68-0.8,3.36-1.57,5.04-2.33C636.38,138.75,641.11,139.4,646.32,139.74z"/>
		<path fill="none" d="M627.13,143.44c5.38,1.16,11.81,2.19,19.15,2.65c0,2.02,0,4.01-0.02,6.03c-7.4-0.5-13.83-1.6-19.13-2.82
			L627.13,143.44L627.13,143.44z"/>
		<path fill="#FAB200" d="M646.34,131.62v2.08c-1.36-0.09-2.69-0.19-3.99-0.32C643.69,132.78,645.02,132.19,646.34,131.62z"/>
		<path fill="none" d="M646.34,133.7c-0.02,2.02-0.02,4.01-0.02,6.03c-5.21-0.34-9.94-0.99-14.15-1.77
			c3.4-1.57,6.79-3.11,10.15-4.59h0.02C643.65,133.51,644.98,133.62,646.34,133.7z"/>
	</g>
	<path fill="#FAB200" d="M313.09,146.72c-8.75,7.86-20.47,12.15-32.98,11.29c-3.21-0.23-6.33-0.8-9.31-1.68
		c-1.57-0.44-3.09-0.99-4.59-1.64h1.43c17.83,0,31.2-3.91,38.37-6.01C307.94,148.1,310.31,147.41,313.09,146.72z"/>
	<g>
		<path fill="#FAB200" d="M258.01,98.76c-7.65-0.59-14.28-1.77-19.7-3.03v-1.55c6.48,0.46,13.03,1.1,19.67,1.83
			C257.99,96.93,257.99,97.86,258.01,98.76z"/>
		<path fill="#FAB200" d="M309.9,104.63c-0.46,0.13-0.9,0.26-1.32,0.38c0-0.23,0.02-0.44,0.02-0.67
			C309.04,104.42,309.45,104.53,309.9,104.63z"/>
		<path fill="#FAB200" d="M328.54,109.06c-0.09,1.3-0.17,2.59-0.3,3.89c-8.98,1.32-15.94,3.34-20.45,4.67
			c-0.15,0.04-0.28,0.09-0.42,0.13c0.56-2.19,0.9-4.48,0.99-6.89c3.62-1.03,8.3-2.29,13.96-3.34
			C324.38,108.02,326.46,108.54,328.54,109.06z"/>
		<path fill="none" d="M322.32,107.51c-5.65,1.05-10.34,2.31-13.96,3.34c0.02-0.06,0.02-0.13,0.02-0.19
			c0.06-1.87,0.13-3.79,0.19-5.65c0.42-0.13,0.86-0.26,1.32-0.38c1.98,0.42,3.97,0.86,5.95,1.34c0.17,0.02,0.32,0.06,0.46,0.11
			c1.83,0.42,3.66,0.86,5.51,1.3C321.99,107.42,322.15,107.47,322.32,107.51z"/>
		<path fill="#FAB200" d="M261.5,123.72c-8.68-0.42-16.14-1.64-22.22-2.99c-0.42-2.19-0.67-4.42-0.78-6.7
			c5.55,1.34,12.49,2.65,20.62,3.19C259.69,119.55,260.5,121.72,261.5,123.72z"/>
		<path fill="#FAB200" d="M258.26,111.15c-7.71-0.56-14.4-1.74-19.87-3.03c-0.04-2.17-0.06-4.33-0.06-6.5
			c5.34,1.28,11.98,2.54,19.74,3.15c0.04,1.96,0.09,3.91,0.17,5.86C258.24,110.81,258.26,110.98,258.26,111.15z"/>
		<path fill="none" d="M258.07,104.77c-7.76-0.61-14.4-1.87-19.74-3.15c-0.02-1.98-0.02-3.93-0.02-5.88
			c5.43,1.26,12.04,2.44,19.7,3.03C258.01,100.78,258.03,102.78,258.07,104.77z"/>
		<path fill="none" d="M259.12,117.22c-8.14-0.54-15.08-1.85-20.62-3.19c-0.04-0.5-0.06-0.99-0.06-1.49
			c-0.02-1.47-0.04-2.95-0.04-4.42c5.47,1.28,12.15,2.46,19.87,3.03C258.37,113.27,258.67,115.31,259.12,117.22z"/>
		<path fill="#FAB200" d="M275.56,135.99c-1.55,0.11-3.13,0.17-4.77,0.21c-1.03,0.02-2.08,0.04-3.15,0.04s-2.14-0.02-3.17-0.04
			c-7.8-0.19-14.69-1.05-20.56-2.17c-1.18-2.25-2.19-4.61-2.99-7.06c6.68,1.47,15.1,2.8,24.93,2.92c0,0,0,0.02,0.02,0.02
			c1.47,1.53,3.11,2.84,4.92,3.91C272.29,134.74,273.88,135.45,275.56,135.99z"/>
		<path fill="none" d="M265.85,129.9c-9.84-0.13-18.25-1.45-24.93-2.92c-0.69-2.02-1.24-4.1-1.64-6.25
			c6.08,1.34,13.54,2.56,22.22,2.99C262.68,126.05,264.15,128.11,265.85,129.9z"/>
		<path fill="#FAB200" d="M327.59,119.01c-0.32,2.29-0.78,4.5-1.39,6.64c-8.01,1.3-14.25,3.13-18.42,4.35
			c-2.65,0.78-6.08,1.77-10.24,2.73c2.99-2.17,5.47-5.04,7.32-8.47c0.4-0.13,0.78-0.23,1.14-0.34
			C310.76,122.54,318.09,120.39,327.59,119.01z"/>
		<path fill="#FAB200" d="M323.86,132c-1.16,2.59-2.56,5.02-4.16,7.28c-4.94,1.07-8.94,2.25-11.9,3.11c-7.06,2.06-19.87,5.78-37,6.2
			c-1.03,0.02-2.08,0.04-3.15,0.04s-2.14-0.02-3.17-0.04c-3.23-0.09-6.33-0.28-9.25-0.56c-2.59-2.14-4.94-4.59-7.04-7.28
			c5.68,0.9,12.19,1.55,19.47,1.55c17.81,0,31.2-3.91,38.37-5.99C310.11,135.11,316.14,133.35,323.86,132z"/>
		<path fill="none" d="M319.69,139.28c-1.92,2.73-4.12,5.21-6.58,7.42l-0.02,0.02c-2.78,0.69-5.15,1.39-7.09,1.96
			c-7.17,2.1-20.54,6.01-38.37,6.01h-1.43c-0.02,0-0.04,0-0.06-0.02c-3.97-1.66-7.65-3.91-10.93-6.64c2.92,0.3,6.01,0.48,9.25,0.56
			c1.03,0.02,2.1,0.04,3.17,0.04s2.12-0.02,3.15-0.04c17.13-0.42,29.94-4.14,37-6.2C310.76,141.53,314.75,140.35,319.69,139.28z"/>
		<path fill="none" d="M326.21,125.65c-0.63,2.21-1.41,4.33-2.35,6.35c-7.71,1.34-13.75,3.11-17.85,4.31
			c-7.17,2.08-20.56,5.99-38.37,5.99c-7.28,0-13.79-0.65-19.47-1.55v-0.02c-1.57-2.1-3.03-4.31-4.27-6.68
			c5.86,1.12,12.76,1.98,20.56,2.17c1.03,0.02,2.1,0.04,3.17,0.04c1.07,0,2.12-0.02,3.15-0.04c1.64-0.04,3.21-0.11,4.77-0.21h0.09
			c2.42,0.8,4.92,1.22,7.67,1.24c5.38,0.02,10.24-1.6,14.23-4.5c4.16-0.97,7.59-1.96,10.24-2.73
			C311.95,128.79,318.2,126.96,326.21,125.65z"/>
		<path fill="none" d="M328.25,112.96c-0.15,2-0.36,3.97-0.63,5.95c0,0.04,0,0.06-0.02,0.11c-9.5,1.39-16.84,3.53-21.59,4.92
			c-0.36,0.11-0.73,0.21-1.14,0.34c1.07-2,1.92-4.18,2.5-6.52c0.15-0.04,0.28-0.09,0.42-0.13
			C312.31,116.3,319.27,114.28,328.25,112.96z"/>
	</g>
	<g>
		<path fill="#FAB200" d="M42.82,132.86c-5.02,0.67-10.62,1.1-16.72,1.1c-2.78,0-5.45-0.09-7.99-0.26c-0.63-1.3-1.2-2.63-1.7-3.95
			c1.7-0.73,3.47-1.47,5.28-2.21c1.43,0.06,2.9,0.09,4.42,0.09c4.1,0,7.97-0.21,11.57-0.54C39.09,129.27,40.83,131.23,42.82,132.86z
			"/>
		<path fill="none" d="M26.12,127.63c-1.51,0-2.99-0.02-4.42-0.09c4.25-1.72,8.75-3.49,13.5-5.26c0.65,1.7,1.49,3.3,2.48,4.79
			C34.08,127.42,30.21,127.63,26.12,127.63z"/>
		<path fill="#FAB200" d="M103.44,109.36c-7.4,0.06-14,0.8-19.7,1.79c-0.09-1.28-0.23-2.54-0.46-3.77c6.12-1.55,12.49-3.01,19-4.37
			c0.02,0,0.02,0,0.04,0h0.36C103.05,105.07,103.33,107.2,103.44,109.36z"/>
		<path fill="none" d="M102.68,103.01h-0.36c0.11-0.02,0.23-0.04,0.34-0.06C102.66,102.97,102.66,102.99,102.68,103.01z"/>
		<path fill="#FAB200" d="M103.68,121.72c-8.64,0.04-16.23,1.03-22.51,2.27c1.01-2.12,1.74-4.42,2.19-6.83
			c5.86-0.99,12.65-1.72,20.27-1.77C103.66,117.5,103.68,119.6,103.68,121.72z"/>
		<path fill="none" d="M83.36,117.16c0.23-1.32,0.36-2.67,0.4-4.05c0.02-0.65,0-1.3-0.02-1.96c5.7-0.99,12.3-1.72,19.7-1.79
			c0.04,0.32,0.04,0.63,0.06,0.97c0.06,1.68,0.11,3.36,0.13,5.06C96.01,115.44,89.22,116.17,83.36,117.16z"/>
		<path fill="#FAB200" d="M103.7,127.78c0,2.1-0.02,4.2-0.02,6.33c-17.32,0.13-30.36,3.93-37.42,5.99
			c-7.38,2.17-21.05,6.14-39.4,6.25c-1.81-1.92-3.51-4.03-5.09-6.41c1.41,0.06,2.86,0.09,4.33,0.09c9.8,0,18.25-1.18,25.08-2.61
			h0.04c2.23,0.71,4.56,1.12,7.02,1.14c7.13,0.09,13.56-2.84,18.16-7.65C83.65,129.27,92.86,127.84,103.7,127.78z"/>
		<path fill="none" d="M51.19,137.41c-6.83,1.43-15.28,2.61-25.08,2.61c-1.47,0-2.92-0.02-4.33-0.09c-1.12-1.64-2.19-3.4-3.17-5.28
			c-0.17-0.32-0.34-0.63-0.48-0.95c2.54,0.17,5.21,0.26,7.99,0.26c6.1,0,11.69-0.42,16.72-1.1
			C45.27,134.91,48.1,136.46,51.19,137.41z"/>
		<path fill="none" d="M103.7,127.78c-10.85,0.06-20.06,1.49-27.29,3.11c1.94-2,3.55-4.33,4.75-6.89
			c6.29-1.24,13.87-2.23,22.51-2.27C103.7,123.74,103.7,125.76,103.7,127.78z"/>
		<path fill="#FAB200" d="M103.7,146.48c-17.34,0.13-30.38,3.93-37.44,5.99c-4.67,1.36-11.87,3.47-21.19,4.85h-0.03
			c-4.05-1.05-7.8-2.8-11.33-5.19c14.04-0.86,24.66-3.97,30.78-5.76c7.36-2.14,20.96-6.1,39.17-6.22
			C103.66,142.28,103.66,144.39,103.7,146.48z"/>
		<path fill="none" d="M64.5,146.38c-6.12,1.79-16.74,4.9-30.78,5.76h-0.06c-2.39-1.62-4.67-3.55-6.79-5.8
			c18.35-0.11,32.02-4.08,39.4-6.25c7.06-2.06,20.1-5.86,37.42-5.99c0,2.02-0.02,4.03-0.02,6.05
			C85.46,140.28,71.86,144.24,64.5,146.38z"/>
		<path fill="#FAB200" d="M103.72,152.54c-0.34,3.58-2.23,4.81-6.16,4.48c-2.25-0.17-4.69,0.48-6.75-0.15
			c-2.17-0.65-4.16-1.72-6.18-2.78C90.23,153.19,96.62,152.58,103.72,152.54z"/>
		<path fill="none" d="M103.77,151.05c0,0.54,0,1.03-0.04,1.49c-7.11,0.04-13.5,0.65-19.09,1.55c-0.76-0.4-1.51-0.8-2.29-1.18
			c0.02-0.78,0.06-1.55,0.09-2.33c-13.54,7.44-26.32,9.63-37.36,6.75c9.31-1.39,16.52-3.49,21.19-4.85
			c7.06-2.06,20.1-5.86,37.44-5.99C103.7,148,103.72,149.54,103.77,151.05z"/>
	</g>
	<g>
		<path fill="#FAB200" d="M146.03,100.01c-0.99,2.21-1.66,4.61-1.98,7.11c-5.3,1.36-12.11,2.86-20.23,3.68
			c0.02-2.19,0.17-4.33,0.46-6.41C133.45,103.35,140.81,101.48,146.03,100.01z"/>
		<path fill="none" d="M146.03,100.01c-5.21,1.47-12.57,3.34-21.74,4.37c0.26-1.92,0.61-3.77,1.05-5.59
			c7.46-1.18,15.14-2.23,23.06-3.09C147.48,97.04,146.68,98.47,146.03,100.01z"/>
		<path fill="#FAB200" d="M213.13,101.62c-6.12-1.22-13.47-2.21-21.89-2.35c-1.07-2.29-2.46-4.39-4.1-6.25
			c1.41-0.04,2.84-0.09,4.27-0.11h0.13c7.4,0.13,14,0.88,19.7,1.89C212.04,97,212.67,99.29,213.13,101.62z"/>
		<path fill="none" d="M211.23,94.81c-5.7-1.01-12.3-1.77-19.7-1.89c1.03-0.02,2.06-0.04,3.09-0.06c2.39-0.04,4.81-0.06,7.24-0.06
			c2.86,0,5.76,0.02,8.66,0.09C210.78,93.51,211.03,94.16,211.23,94.81z"/>
		<path fill="#FAB200" d="M214.18,111.86v2.35c-5.72-1.18-12.57-2.21-20.41-2.48c0.02-0.32,0.02-0.63,0.02-0.95
			c0-1.87-0.19-3.7-0.54-5.45c7.91,0.26,14.86,1.22,20.75,2.35v0.02C214.12,109.08,214.18,110.48,214.18,111.86z"/>
		<path fill="none" d="M193.24,105.35c-0.42-2.14-1.1-4.18-2-6.08c8.41,0.15,15.77,1.14,21.89,2.35c0.42,2,0.69,3.99,0.86,6.08
			C208.1,106.56,201.15,105.6,193.24,105.35z"/>
		<path fill="#FAB200" d="M214.2,126.62c-6.52-1.36-14.55-2.5-23.8-2.59c1.1-1.94,1.94-4.05,2.5-6.31c8.16,0.23,15.3,1.22,21.3,2.42
			C214.2,122.14,214.22,124.31,214.2,126.62z"/>
		<path fill="none" d="M214.2,120.15c-5.99-1.2-13.14-2.19-21.3-2.42c0.5-1.92,0.8-3.91,0.86-5.99c7.84,0.28,14.69,1.3,20.41,2.48
			v0.02C214.2,115.96,214.2,117.94,214.2,120.15z"/>
		<path fill="#FAB200" d="M214.22,132.52v6.46c-6.83-1.43-15.3-2.61-25.12-2.61c-17.83,0-31.2,3.91-38.39,6.01
			c-3.03,0.88-7.13,2.08-12.17,3.19c-1.89-1.68-3.62-3.49-5.15-5.43c6.64-1.26,11.9-2.8,15.56-3.85c2.27-0.67,5.15-1.51,8.58-2.35
			c3.45,1.81,7.36,2.82,11.52,2.8c6.46-0.04,12.3-2.54,16.67-6.66c1.12-0.02,2.23-0.04,3.38-0.04
			C198.86,130.04,207.31,131.16,214.22,132.52z"/>
		<path fill="#FAB200" d="M151.66,129.73c-0.34,0.09-0.65,0.19-0.95,0.28c-4.65,1.34-11.75,3.43-20.96,4.79
			c-1.1-1.92-2.02-3.89-2.8-5.99c8.75-1.18,15.68-3.07,20.47-4.44C148.61,126.35,150.04,128.15,151.66,129.73z"/>
		<path fill="#FAB200" d="M145.1,119.2c-5.15,1.39-11.85,2.92-19.91,3.83c-0.48-2-0.82-4.08-1.05-6.25
			c8.03-0.9,14.69-2.44,19.74-3.81C144.03,115.14,144.47,117.22,145.1,119.2z"/>
		<path fill="none" d="M143.88,112.98c-5.04,1.36-11.71,2.9-19.74,3.81c-0.09-0.8-0.17-1.6-0.21-2.42c-0.09-1.2-0.11-2.39-0.11-3.58
			c8.12-0.82,14.93-2.31,20.23-3.68c-0.17,1.07-0.26,2.19-0.28,3.3C143.75,111.28,143.8,112.14,143.88,112.98z"/>
		<path fill="none" d="M147.43,124.37c-4.79,1.36-11.73,3.26-20.47,4.44c-0.71-1.85-1.3-3.79-1.77-5.78
			c8.05-0.9,14.76-2.44,19.91-3.83C145.71,121.03,146.49,122.75,147.43,124.37z"/>
		<path fill="none" d="M157.52,133.96c-3.43,0.84-6.31,1.68-8.58,2.35c-3.66,1.05-8.92,2.59-15.56,3.85
			c-1.36-1.7-2.56-3.49-3.64-5.36c9.21-1.36,16.31-3.45,20.96-4.79c0.3-0.09,0.61-0.19,0.95-0.28
			C153.4,131.42,155.36,132.84,157.52,133.96z"/>
		<path fill="none" d="M214.22,132.52c-6.92-1.36-15.36-2.48-25.12-2.48c-1.16,0-2.27,0.02-3.38,0.04c1.85-1.74,3.43-3.79,4.69-6.05
			c9.25,0.09,17.28,1.22,23.8,2.59C214.22,128.49,214.22,130.47,214.22,132.52z"/>
		<path fill="#FAB200" d="M193.79,148.86v-2c-1.32,0.11-1.96-0.04-2.21,0.21c-0.63,0.59-1.28,1.16-1.92,1.68h-0.56
			c-16.48,0-29.16,3.34-36.67,5.51c-0.61-0.26-1.24-0.54-1.87-0.84c-2.21-1.05-4.27-2.21-6.2-3.45c1.74-0.46,3.26-0.93,4.59-1.3
			c7.48-2.19,21.42-6.25,40.16-6.25c9.76,0,18.21,1.1,25.12,2.48c0.02,2.12,0.02,4.27,0.02,6.46
			C208.53,150.19,201.65,149.15,193.79,148.86z"/>
		<path fill="#FAB200" d="M179.24,155.19c-5.02,2.06-10.19,2.8-15.62,2.17C168.16,156.43,173.4,155.63,179.24,155.19z"/>
		<path fill="none" d="M189.67,148.76c-3.34,2.84-6.79,4.96-10.36,6.41h-0.04l-0.02,0.02c-5.84,0.44-11.08,1.24-15.62,2.17h-0.04
			c-3.66-0.42-7.34-1.45-11.14-3.09c7.5-2.17,20.18-5.51,36.67-5.51C189.1,148.76,189.67,148.76,189.67,148.76z"/>
		<path fill="none" d="M189.1,142.43c-18.73,0-32.67,4.05-40.16,6.25c-1.32,0.38-2.84,0.84-4.59,1.3c-2.1-1.34-4.03-2.82-5.82-4.39
			c5.04-1.12,9.14-2.31,12.17-3.19c7.19-2.1,20.56-6.01,38.39-6.01c9.82,0,18.29,1.18,25.12,2.61c0.02,1.94,0.02,3.91,0,5.93
			C207.31,143.53,198.86,142.43,189.1,142.43z"/>
		<path fill="#FAB200" d="M214.24,157.27v6.48c-5.72-1.18-12.59-2.21-20.45-2.5v-6.35C201.59,155.19,208.44,156.13,214.24,157.27z"
			/>
		<path fill="none" d="M214.24,151.37v5.91c-5.8-1.14-12.65-2.08-20.45-2.37v-6.03C201.65,149.15,208.53,150.19,214.24,151.37z"/>
		<path fill="#FAB200" d="M214.24,169.68v6.46c-5.72-1.18-12.59-2.21-20.45-2.5v-6.35C201.59,167.57,208.44,168.52,214.24,169.68z"
			/>
		<path fill="#FAB200" d="M214.22,182.03v6.48c-5.72-1.2-12.59-2.21-20.43-2.5v-6.35C201.59,179.94,208.44,180.9,214.22,182.03z"/>
		<path fill="#FAB200" d="M214.22,194.44v1.57h-20.43v-3.97C201.59,192.32,208.44,193.28,214.22,194.44z"/>
		<path fill="none" d="M214.22,188.51v5.93c-5.78-1.16-12.63-2.12-20.43-2.39v-6.03C201.63,186.3,208.5,187.31,214.22,188.51z"/>
		<path fill="none" d="M214.24,176.13c0,2-0.02,3.97-0.02,5.91c-5.78-1.14-12.63-2.1-20.43-2.37v-6.03
			C201.65,173.92,208.53,174.95,214.24,176.13z"/>
		<path fill="none" d="M214.24,163.74v5.93c-5.8-1.16-12.65-2.1-20.45-2.39v-6.03C201.65,161.54,208.53,162.57,214.24,163.74z"/>
	</g>
	<g>
		<path fill="#FAB200" d="M716.18,110.5c-7.97,1.1-14.42,2.78-19.07,4.1c-0.02-0.32-0.02-0.63-0.04-0.95
			c6.41-1.64,12.78-2.99,19.07-3.97C716.16,109.95,716.18,110.22,716.18,110.5z"/>
		<path fill="#FAB200" d="M716.85,122.78c-8.18,1.07-14.82,2.8-19.59,4.16c0-2.21-0.02-4.39-0.02-6.58
			c4.92-1.34,11.42-2.92,19.3-3.93C716.66,118.53,716.77,120.65,716.85,122.78z"/>
		<path fill="none" d="M697.23,120.35v-0.08c0-1.89-0.04-3.79-0.13-5.68c4.65-1.32,11.1-3.01,19.07-4.1
			c0.15,1.98,0.28,3.95,0.36,5.93C708.65,117.44,702.16,119.01,697.23,120.35z"/>
		<path fill="#FAB200" d="M717.25,135.09c-8.36,1.1-15.12,2.84-19.97,4.2v-6.56c5.02-1.39,11.69-2.99,19.76-3.99
			C717.12,130.84,717.18,132.97,717.25,135.09z"/>
		<path fill="none" d="M697.28,132.74c0-1.94,0-3.87-0.02-5.8c4.77-1.36,11.42-3.09,19.59-4.16c0.06,2,0.15,3.97,0.19,5.97
			C708.97,129.75,702.3,131.35,697.28,132.74z"/>
		<path fill="#FAB200" d="M717.63,147.43c-8.53,1.07-15.43,2.86-20.37,4.27c0-2.21,0-4.42,0.02-6.6c5.09-1.39,11.9-3.03,20.14-4.01
			C717.48,143.19,717.54,145.31,717.63,147.43z"/>
		<path fill="none" d="M717.42,141.08c-8.24,0.99-15.06,2.63-20.14,4.01v-5.8c4.85-1.36,11.61-3.11,19.97-4.2
			C717.31,137.09,717.35,139.09,717.42,141.08z"/>
		<path fill="#FAB200" d="M717.99,156.62H700.6c4.69-1.2,10.49-2.42,17.26-3.19C717.88,154.5,717.94,155.55,717.99,156.62z"/>
		<path fill="none" d="M717.86,153.4v0.02c-6.77,0.78-12.57,2-17.26,3.19h-3.34v-4.92c4.94-1.41,11.83-3.19,20.37-4.27
			C717.69,149.43,717.76,151.41,717.86,153.4z"/>
	</g>
</g>
</svg>
