<svg height="110.265" viewBox="0 0 195.217 110.265" width="195.217" xmlns="http://www.w3.org/2000/svg"><g fill="#fff"><path d="m104.841 21.218c2.081 4.116 2.924 8.768 1.987 10.369-1.85-.091-5.317-3.289-7.569-7.366-2.26-4.13-2.939-8.811-1.983-10.4 1.835.094 5.473 3.215 7.564 7.4" transform="translate(17.124 -10.239)"/><path d="m97 27.852c4.084 1.2 7.914 3.707 9 5.4-1.784.9-6.547.984-10.467.092s-7.893-3.7-8.971-5.4c1.791-.9 6.42-1.3 10.433-.1" transform="translate(13.014 -4.932)"/><path d="m112.125 21.023c1.307-4.043 4.6-8.638 6.568-9.762.883 2.07.777 7.623-.551 11.782-1.332 4.1-4.623 8.61-6.582 9.71-.894-2.049-.764-7.685.565-11.731" transform="translate(22.769 -11.261)"/><path d="m96.128 40.849c3.8-2.707 8.354-4.467 10.2-4.039-.183 1.952-2.183 5.3-6.527 8.74-4.364 3.483-8.321 4.473-10.153 4.038.052-1.877 2.746-6.063 6.483-8.738" transform="translate(14.243 -1.08)"/><path d="m125.284 25.112c3.474-2.091 10.124-2.763 10.471-1.94.33.836-3.356 5.706-7.338 7.738s-9.892 3.09-10.483 1.943c-.585-1.173 3.854-5.627 7.35-7.741" transform="translate(25.523 -6.639)"/><path d="m129.628 36.557c5.089 1.516 8.746 4.795 8.3 5.84s-5.058 1.861-10.144.369c-5.09-1.517-8.747-4.623-8.3-5.842s5.062-1.894 10.146-.368" transform="translate(26.148 -1.506)"/><path d="m117.222 51.549a19.029 19.029 0 0 1 -2.33-9.994 18.609 18.609 0 0 1 7.329 7.151 19.7 19.7 0 0 1 2.344 10.013 18.983 18.983 0 0 1 -7.343-7.171" transform="translate(24.31 .842)"/><path d="m123.24 100.657c-5.433-14.85-8.295-26.7-9.725-37.157a267.94 267.94 0 0 0 -4.907 1.1 133.843 133.843 0 0 0 14.632 36.057" transform="translate(21.819 9.609)"/><path d="m114.154 48.369a118.8 118.8 0 0 0 2.031 23.481c1.812-.348 3.621-.672 5.408-.97-1.18-11.977-.558-22.521.08-34.412a3.416 3.416 0 0 0 -6.585-1.64 252.546 252.546 0 0 1 -28.171 45.328 185.67 185.67 0 0 1 6.494-2.318 240.332 240.332 0 0 0 20.743-29.469" transform="translate(13.153 -2.733)"/><path d="m129.346 60.6c-1.789.3-3.6.621-5.408.97-1.44.291-2.887.592-4.32.911a196.357 196.357 0 0 0 -18.454 5.077 182.93 182.93 0 0 0 -6.494 2.318c-16.497 6.224-25.507 12.633-26.155 13.172a2.22 2.22 0 0 0 -.732 2.869c.609.905 1.551 1.164 3.128.439a192.772 192.772 0 0 1 41.4-16.453c4.443-1.246 8.652-2.334 12.716-3.247 1.661-.386 3.293-.756 4.907-1.1 22.066-4.674 39.266-5.025 59.883-3.756-14.605-3.6-37.066-4.972-60.471-1.206" transform="translate(5.399 7.552)"/><path d="m29.861 28h-7.648v.13c2.3.53 3.692 1 3.692 2.424a7.626 7.626 0 0 1 -.714 2.525l-.031.08s-9.36 23.874-9.747 24.832h2.241c.175-.456 3.793-10.153 3.793-10.153h12.607l3.984 10.153h3.87c-.408-.96-11.869-29.542-12.047-29.991m-8.013 18.781 5.652-14.425.347-.883 5.953 15.308z" transform="translate(-15.413 -4.572)"/><path d="m42.638 39.869.087-.249a6.983 6.983 0 0 1 6.66-5.185h.1v3.022a5.068 5.068 0 0 0 -1.3-.224c-3.833 0-5.937 2.9-5.937 7.813v10.376h-3.161v-16.335c0-2.981-2.367-3.325-3.819-3.468v-.139c.549-.07 6.259-.89 6.978-.987.007.027 0 6.76 0 6.76.192-.8.392-1.384.392-1.384" transform="translate(-7.481 -2.003)"/><path d="m67.431 34.435c-6.554 0-8.1 3.036-8.393 5.07h3.738c.141-1.353.676-4.019 4.488-4.019 4.616 0 4.616 3.626 4.616 6.863v2.116l-.494.011c-3.483.1-12.686.362-12.686 6.414 0 3.008 2.277 5.04 5.667 5.04a8.831 8.831 0 0 0 6.874-3.318l.64-.668v3.476h3.135v-13.89c0-4.259-1.288-7.1-7.584-7.1m4.448 13.783c0 2.588-1.9 6.2-5.454 6.2a3.975 3.975 0 0 1 -4.185-4.129c0-2.234 1.607-4.949 9.251-5.118h.388z" transform="translate(1.88 -2.003)"/><path d="m86 50.617c0-2.4-2.7-3.6-5.566-4.867-3.082-1.324-6.26-2.716-6.26-5.695 0-3.662 2.714-5.62 7.823-5.62a22.623 22.623 0 0 1 5.1.676.857.857 0 0 0 .125.029v1.874a13.378 13.378 0 0 0 -5.722-1.527c-2.873 0-4.546 1.209-4.546 3.282 0 2.278 2.5 3.346 5.152 4.46 3.289 1.365 6.683 2.777 6.683 6.515 0 5.384-5.367 6.186-8.594 6.186a20.982 20.982 0 0 1 -6.117-.824v-1.99a15.369 15.369 0 0 0 6.322 1.76c4.625 0 5.606-2.313 5.606-4.259" transform="translate(8.025 -2.003)"/><path d="m54.258 39.869.078-.249a7.029 7.029 0 0 1 6.685-5.185s.053 0 .088 0v3.022a4.775 4.775 0 0 0 -1.3-.224c-3.826 0-5.938 2.9-5.938 7.813v10.376h-3.112v-16.335c0-2.981-2.372-3.325-3.812-3.468v-.139c.542-.07 6.218-.89 6.925-.987v6.76c.185-.8.386-1.384.386-1.384" transform="translate(-2.815 -2.003)"/><path d="m22.975 63.945a8.277 8.277 0 0 1 -2.94.435c-2.949 0-4.547-2.611-4.547-5.794 0-2.845.957-5.087 4.164-5.087 2.375 0 3.215 1.232 3.324 2.3h-1.539a1.722 1.722 0 0 0 -1.878-1.599c-1.654 0-2.536 1.586-2.536 3.984 0 2.218.437 5.5 3.874 5.5a7.157 7.157 0 0 0 2.078-.39z" transform="translate(-15.383 5.613)"/><path d="m23.379 59.524c0-1.416.088-3.581 2.123-3.581 1.873 0 2.151 2.165 2.151 3.581 0 1.318-.141 3.495-2.112 3.495-1.854 0-2.162-2.2-2.162-3.495m2.145 4.176c2.416 0 3.6-1.576 3.6-4.19 0-2.59-1.365-4.235-3.63-4.235-2.53 0-3.584 1.714-3.584 4.254 0 2.474 1.3 4.171 3.619 4.171" transform="translate(-12.819 6.321)"/><path d="m29.439 57.12c0-1.034-.813-1.086-1.321-1.142v-.291l2.652-.417v2.075h.038a3.036 3.036 0 0 1 2.487-2.075c1.626 0 2.054.849 2.054 2.075h.039c.256-.584.964-2.075 2.523-2.075 2.06 0 2.06 1.384 2.06 2.746v5.484h-1.332v-5.2c0-1.282 0-2.178-1.178-2.178-.9 0-2.087 1.594-2.087 3.2v4.178h-1.336v-5.579c0-.938 0-1.8-1.141-1.8-1.107 0-2.127 1.831-2.127 3.268v4.111h-1.331z" transform="translate(-10.337 6.321)"/><path d="m39.234 57.12c0-1.034-.812-1.086-1.311-1.142v-.291l2.642-.417v2.075h.035a3.046 3.046 0 0 1 2.5-2.075c1.623 0 2.059.849 2.059 2.075h.034c.256-.584.964-2.075 2.522-2.075 2.061 0 2.061 1.384 2.061 2.746v5.484h-1.337v-5.2c0-1.282 0-2.178-1.18-2.178-.893 0-2.092 1.594-2.092 3.2v4.178h-1.332v-5.579c0-.938 0-1.8-1.141-1.8-1.106 0-2.129 1.831-2.129 3.268v4.111h-1.331z" transform="translate(-6.42 6.321)"/><path d="m54.026 61.6h-.032a3 3 0 0 1 -2.594 2.1c-1.934 0-2.369-1.338-2.369-3.259v-3.321c0-1.034-.815-1.086-1.3-1.142v-.291l2.634-.417v5.4c0 1.122.277 2.186 1.446 2.186 1.146 0 2.214-2.131 2.214-3.257v-2.479c0-1.034-.795-1.086-1.289-1.142v-.291l2.624-.417v8.23h-1.334z" transform="translate(-2.501 6.321)"/><path d="m55.844 57.12c0-1.034-.813-1.086-1.313-1.142v-.291l2.649-.417v2.306h.028a3.369 3.369 0 0 1 2.892-2.306c1.682 0 2.054.849 2.054 2.075v6.155h-1.33v-5.579c0-.938 0-1.8-1.2-1.8-1.265 0-2.439 2.123-2.439 3.268v4.111h-1.341z" transform="translate(.215 6.321)"/><path d="m66.212 60.634c0 .865-.567 2.218-1.745 2.218a1.318 1.318 0 0 1 -1.309-1.425c0-1.7 2.333-1.8 3.054-1.812zm0 2.869h1.334v-5.416c0-1.588-.41-2.816-2.728-2.816-2.287 0-2.959 1.17-3.03 2.2h1.537c.036-.455.125-1.527 1.44-1.527 1.447 0 1.447 1.247 1.447 2.456v.677c-1.118.035-4.526.1-4.526 2.574a1.957 1.957 0 0 0 2.074 2.045 3.062 3.062 0 0 0 2.452-1.3z" transform="translate(3.073 6.321)"/><path d="m73.578 61.6h-.038a3 3 0 0 1 -2.59 2.1c-1.934 0-2.362-1.338-2.362-3.259v-3.321c0-1.034-.824-1.086-1.3-1.142v-.291l2.625-.417v5.4c0 1.122.28 2.186 1.457 2.186 1.141 0 2.211-2.131 2.211-3.257v-2.479c0-1.034-.795-1.086-1.3-1.142v-.291l2.63-.417v8.23h-1.333z" transform="translate(5.31 6.321)"/><path d="m79 64.283a4.55 4.55 0 0 1 -.987.106c-2.311 0-2.469-.816-2.469-2.441v-5.2h-1.329v-.585h1.334v-1.477l1.31-1.155v2.628h2.141v.585h-2.122v5.7c0 1.038.626 1.265 1.469 1.265a4.236 4.236 0 0 0 .653-.061z" transform="translate(8.079 5.626)"/><path d="m83.542 59.067h-3.526a1.94 1.94 0 0 1 1.9-2.007 1.693 1.693 0 0 1 1.628 1.85zm-2.129-3.875h.745l1.017-1.434a1.464 1.464 0 0 0 .336-.691.616.616 0 0 0 -.661-.588c-.519 0-.693.192-.851.722zm3.427 8.738a4.9 4.9 0 0 1 -1.229.2c-2.411.004-3.611-2.43-3.611-4.11v-.364h5.047v-.265a2.72 2.72 0 0 0 -2.9-3c-2.528 0-3.481 1.472-3.481 3.962 0 2.887 1.49 4.462 4.024 4.462a7.181 7.181 0 0 0 2.15-.315z" transform="translate(9.856 5.205)"/><path d="m24.289 71.541c0 1.929 0 4.073-3.527 4.073-3.369 0-3.615-1.832-3.615-4.008v-4.913c0-1.082-.505-1.037-1.567-1.17v-.26l2.926-.355v6.7c0 1.15 0 3.4 2.274 3.4 2.582 0 2.582-1.794 2.582-3.272v-6.829h.926z" transform="translate(-15.346 10.171)"/><path d="m24.318 68.459c0-1.093-.806-1.146-1.3-1.2v-.289l2.639-.416v2.06h.036a2.376 2.376 0 0 1 2.3-2.06.547.547 0 0 1 .154.015v1.436a2.388 2.388 0 0 0 -.572-.12c-1.677 0-1.919 1.693-1.919 2.754v4.143h-1.338z" transform="translate(-12.376 10.829)"/><path d="m30.355 71.031c0-.88.6-2.7 1.951-2.7 1.682 0 2.025 2.193 2.025 3.565 0 1.209-.189 3.511-1.9 3.511-2.038 0-2.071-1.9-2.071-3.082zm-1.334 4.856h.432l.9-.718a2.859 2.859 0 0 0 2.108.912c2.306 0 3.336-1.66 3.336-4.185 0-2.231-.879-4.238-3.145-4.238a2.438 2.438 0 0 0 -2.266 1.369h-.034v-5.24l-2.7.375v.3c1.04.013 1.366.291 1.366 1.447z" transform="translate(-10.522 9.723)"/><path d="m39.428 71.92c0 .863-.571 2.213-1.749 2.213a1.318 1.318 0 0 1 -1.311-1.42c0-1.695 2.332-1.8 3.061-1.817zm0 2.862h1.332v-5.408c0-1.6-.416-2.82-2.73-2.82-2.285 0-2.963 1.173-3.031 2.194h1.541c.036-.444.123-1.521 1.44-1.521 1.448 0 1.448 1.244 1.448 2.452v.682c-1.122.036-4.532.1-4.532 2.574a1.961 1.961 0 0 0 2.077 2.042 3.075 3.075 0 0 0 2.455-1.3z" transform="translate(-7.629 10.829)"/><path d="m41.756 69.435c0-1.043-.82-1.1-1.3-1.146v-.289l2.628-.416v8.226h-1.328zm-.379-4.483a.976.976 0 0 1 1.952 0 .958.958 0 0 1 -.971.971.977.977 0 0 1 -.981-.971" transform="translate(-5.408 9.802)"/><path d="m45.073 68.407c0-1.043-.81-1.094-1.317-1.146v-.291l2.649-.416v2.3h.036a3.359 3.359 0 0 1 2.884-2.3c1.678 0 2.056.845 2.056 2.077v6.151h-1.326v-5.582c0-.935 0-1.8-1.213-1.8-1.262 0-2.437 2.126-2.437 3.272v4.11h-1.332z" transform="translate(-4.09 10.829)"/><path d="m55.8 69.231h-3.53a1.936 1.936 0 0 1 1.9-2 1.692 1.692 0 0 1 1.63 1.849zm1.3 4.869a4.962 4.962 0 0 1 -1.23.206c-2.4 0-3.615-2.441-3.615-4.117v-.365h5.047v-.253a2.727 2.727 0 0 0 -2.902-3.016c-2.523 0-3.478 1.474-3.478 3.965 0 2.879 1.485 4.457 4.029 4.457a6.974 6.974 0 0 0 2.152-.312z" transform="translate(-1.227 10.829)"/></g></svg>