<svg height="114.34pt" viewBox="0 0 409.78 114.34" width="409.78pt" xmlns="http://www.w3.org/2000/svg"><g fill="#fff"><path d="m84.226562 60.9375v-28.589844h1.605469v26.945313h8.046875v1.644531zm27.679688 0v-28.589844h13.73438v1.640625h-12.09375v10.410157h12.09375v1.761718h-12.09375v13.132813h12.09375v1.644531zm62.92188-14.898437v14.898437h-1.60157v-28.589844h12.41407v1.640625h-10.8125v10.410157h10.8125v1.640625zm45.9375 14.898437-3.28125-8.570312h-13.01563l-3.32422 8.570312h-1.59765l11.41015-29.511719 11.45313 29.511719zm-9.8086-25.347656-5.84765 15.136719h11.6914zm29.8711 25.347656v-28.589844h1.60156v28.589844zm34.89062 0-9.08594-14.296875h-3.08593v14.296875h-1.60157v-28.589844h6.60938c1.07812 0 2.07812.160157 3.03906.441407.96094.320312 1.80469.757812 2.48438 1.359375.67968.601562 1.24218 1.363281 1.68359 2.242187.39844.882813.59766 1.882813.59766 3.042969 0 1.242187-.19922 2.324219-.5586 3.246094-.40234.917968-.96094 1.640625-1.64453 2.242187-.71875.597656-1.55859 1-2.51953 1.28125-.96094.277344-2.00391.4375-3.16406.4375l9.16797 14.296875zm-1.51953-23.945312c-.32031-.679688-.76172-1.242188-1.32031-1.683594-.5625-.4375-1.20313-.757813-1.96485-1-.75781-.199219-1.5625-.320313-2.40234-.320313h-4.96484v11.011719h5.40625c1.72265 0 3.08203-.480469 4.16406-1.441406 1.03906-.960938 1.5625-2.363281 1.5625-4.164063 0-.921875-.16016-1.722656-.48047-2.402343zm42.76953 24.34375-7.125-23.984375-7.16797 23.984375-9.17187-28.988282h1.60156l7.48828 23.382813 7.25-23.902344 7.20703 23.902344 7.48438-23.382813h1.68359zm42.55469-.398438-3.28125-8.570312h-13.01172l-3.32422 8.570312h-1.60156l11.41015-29.511719 11.45313 29.511719zm-9.8086-25.347656-5.84765 15.136719h11.69531zm33.71875 11.050781v14.296875h-1.64062v-14.296875l-8.12891-14.292969h1.88282l7.04687 12.371094 7.12891-12.371094h1.8789zm0 0" stroke="#fff" stroke-miterlimit="10" stroke-width="2"/><path d="m1.835938 90.3125c11.589843-8.3125 22.375-20.671875 30.171874-31.925781 1.519532-2.195313 3.226563-1.613281 3.859376.847656 2.210937 8.605469 3.292968 20.484375 4.816406 32.753906.347656 2.773438 1.1875 2.527344 1.425781-.789062 2.65625-36.933594 3.804687-77.285157-6-87.285157-5.027344-5.132812-9.632813-5.332031-14.847656.097657-5.605469 5.835937-13.34375 18.195312-17.359375 27.523437-1.519532 3.535156-2.207032 6.097656.769531 7.554688 2.472656 1.207031 5.863281-1.671875 3.335937-3.3125-2.300781-1.496094-3.582031-2.234375-2.746093-4.753906 1.773437-5.308594 9.519531-17.660157 12.59375-21.011719 3.589843-3.90625 7.09375-5.589844 8.011719-3.148438 1.101562 2.933594.691406 3.785157-1.65625 6.292969-2.359376 2.527344-2.515626 4.015625.328124 7.378906 14.226563 16.816406-2.589843 47.699219-23.410156 68.953125-1.964844 2.003907-1.128906 2.140625.707032.824219"/><g transform="scale(.75000001)"><path d="m303.85352 110.58398v16.16016.16797h1.03125v-16.32813zm-37.98438.0645-5.93555 15.3457h1.1543l1.65625-4.26953h6.26172l1.59961 4.16406.041.10547h1.17579zm189.10938 0-5.93555 15.3457h1.16015l1.65626-4.26953h6.25976l1.5957 4.16406.041.10547h1.17969zm49.0996 0-5.93554 15.3457h1.1582l1.65625-4.26953h6.26172l1.59961 4.16406.041.10547h1.17578zm-63.4746.31445v1.77149h.65625v.73437c0 .3452-.0989.58988-.31446.82422l-.25781.2793h.78125.0801l.0508-.0625c.25583-.32255.39453-.66316.39453-1.04102v-2.50586zm-304.58204.24023c-2.19112 0-3.99926.69458-5.41015 2.10547-1.39053 1.39053-2.08594 3.19754-2.08594 5.38868s.69613 4.00419 2.10742 5.41015c1.39008 1.38994 3.19858 2.08552 5.38867 2.08594 2.18978-.00042 4.00085-.69666 5.40625-2.10156 1.41204-1.39074 2.10743-3.20339 2.10743-5.39453s-.69458-3.99731-2.10547-5.40821v-.002c-1.40636-1.39037-3.23243-2.08399-5.40821-2.08399zm208.63477 0c-2.17685 0-3.98346.71641-5.38867 2.12696-1.4102 1.41028-2.10547 3.19661-2.10547 5.36719 0 2.19093.69445 4.00424 2.10547 5.41015 1.38519 1.39052 3.19842 2.08552 5.38867 2.08594 2.28971-.00043 4.16222-.73911 5.56836-2.23047 1.28776-1.3624 1.94531-3.05128 1.94531-5.02539v-.16602h-5.9414v1.1504h4.67382c-.16494 1.16999-.64689 2.21113-1.52148 3.1582-1.18276 1.30459-2.74632 1.96094-4.72461 1.96094-1.8378 0-3.35048-.59942-4.57617-1.78907-1.1881-1.18855-1.78906-2.69036-1.78906-4.55468 0-1.83828.60066-3.34287 1.81054-4.55274 1.20419-1.20927 2.7161-1.80664 4.55469-1.80664 2.25453 0 3.98656.84494 5.23437 2.56641l.0996.13867.92969-.70313-.0996-.13281c-1.48637-1.99599-3.56422-3.00391-6.16406-3.00391zm21.24023 0c-2.19114 0-4.00419.69613-5.41015 2.10743-1.39046 1.39051-2.08594 3.19565-2.08594 5.38672 0 2.19093.6964 4.00424 2.10742 5.41015 1.3852 1.39052 3.19842 2.08552 5.38867 2.08594 2.18988-.00042 3.9959-.69688 5.40625-2.10156 1.41204-1.39074 2.10743-3.20339 2.10743-5.39453s-.69458-3.99731-2.10547-5.40821v-.002c-1.41143-1.39012-3.23757-2.08399-5.40821-2.08399zm-128.78515.11915c-1.0482 0-1.93392.31798-2.66602.96289-.73208.62337-1.11523 1.48253-1.11523 2.50195 0 1.01698.36656 1.86933 1.09765 2.49805.44439.4051 1.21376.84266 2.36133 1.3457v.002c.59578.25904 1.09198.49604 1.45703.70899.3786.21782.6737.40222.82422.55273l.002.002.004.004c.66611.59156 1.00195 1.33402 1.00195 2.23438.00001.96147-.27915 1.66438-.83789 2.15039-.54096.46786-1.31611.7207-2.30859.7207-.87187 0-1.56633-.20773-2.09961-.60938-.53328-.40164-.91282-1.00396-1.13476-1.82617l-.0469-.16992-1.13672.38477.0449.15429c.31778 1.05479.84717 1.86437 1.58399 2.40625s1.67394.81055 2.78906.81055h.002c.71367 0 1.35254-.10132 1.89453-.29102h.002.002c1.5894-.59804 2.39844-1.86659 2.39844-3.73046 0-1.17716-.39582-2.16746-1.20703-2.95704-.29264-.29232-.66114-.57548-1.12696-.86132l-.002-.002h-.004c-.4627-.2629-1.00308-.54305-1.62695-.82617-.99182-.45462-1.64774-.81314-1.96289-1.05469-.54757-.47496-.82031-1.02037-.82031-1.64648 0-.71932.25666-1.2819.7832-1.71094l.002-.002c.48383-.41052 1.09631-.6211 1.84571-.6211.71846 0 1.30407.13885 1.72461.41602l.006.002.004.002c.35454.20398.64845.49824.89649.91992l.0762.12695 1.07812-.4707-.0879-.16016c-.72014-1.31035-1.97912-1.96679-3.69726-1.96679zm283.85351 0c-1.0531 0-1.94083.3177-2.66796.96289-.73191.62335-1.11329 1.48267-1.11329 2.50195 0 1.01671.35992 1.87096 1.0918 2.5.44825.40364 1.21353.8406 2.36133 1.34375v.002c.59579.25904 1.09184.4955 1.46289.70899.37803.21749.66774.40078.82617.55468l.002.002.004.002c.66613.59156 1 1.33402 1 2.23438 0 .96088-.28464 1.66406-.84375 2.15039-.54097.46786-1.31363.7207-2.30078.7207-.87455 0-1.57024-.20773-2.10352-.60938-.53328-.40164-.91217-1.00367-1.13671-1.82617l-.0469-.16992-1.13867.38477.0469.15429c.31779 1.05479.84648 1.86437 1.58399 2.40625.73749.54188 1.67727.81055 2.79492.81055.7086 0 1.35102-.10093 1.88867-.29102h.002.002c1.58929-.598 2.40429-1.86627 2.40429-3.73046 0-1.1774-.39991-2.16782-1.20507-2.95704-.2927-.29246-.66288-.57536-1.12891-.86132l-.002-.002-.004-.002c-.46736-.26256-1.00702-.5411-1.63086-.82422h-.002c-.99162-.45453-1.64129-.81265-1.95703-1.05469-.54759-.47496-.82032-1.02037-.82032-1.64648 0-.71932.25573-1.28195.77735-1.71094h.002c.48948-.41117 1.10216-.62305 1.85156-.62305.71844 0 1.30408.13885 1.72461.41602l.006.002.004.002c.35453.20398.64843.49824.89648.91992l.0762.12695 1.07812-.4707-.0879-.16016c-.72517-1.30963-1.97913-1.96679-3.69727-1.96679zm-410.2207.0781v14.59375h1.13672v-7.42578h7.50976v7.25976.16602h1.15626v-14.59375h-1.15626v6.01172h-7.50976v-6.01172zm37.76172 0v1.15625h3.15625v13.4375h1.15039v-13.4375h3.15625v-1.15625zm14.32226 0v14.42773.16602h7.18165v-1.15039h-6.03125v-6.21877h6.03125v-1.21289h-6.03125v-4.85547h6.03125v-1.15625zm14.55665 0v14.42773.16602h5.14648v-1.15039h-4.00977v-13.44336zm70.86523 0v14.59375h1.12891v-7.12891h2.51171c1.13271 0 2.09596-.35494 2.86524-1.03711.77359-.67036 1.17578-1.58748 1.17578-2.7246 0-1.11732-.40377-2.03272-1.17773-2.70313-.77006-.66159-1.73167-1-2.86329-1zm133.10938 0v14.42773.16602h5.14648v-1.15039h-4.01563v-13.44336zm12.71874 0v14.59375h1.13477v-7.42578h5.39063v-1.15625h-5.39063v-4.85547h5.39063v-1.15625zm27.02149 0v14.59375h4.92187c1.97872 0 3.59441-.74376 4.82032-2.21484v-.002c1.14477-1.3897 1.71484-3.08915 1.71484-5.09961 0-1.98482-.5693-3.68765-1.73633-5.0625-1.22578-1.47031-2.841-2.21484-4.79883-2.21484zm46.66016 0v14.59375h1.13476v-7.12891h1.2793l4.48242 7.05274.0488.0762h1.35351l-4.58593-7.15039c.47568-.0225.92447-.0849 1.33398-.20508.49467-.14517.9359-.35203 1.31641-.67187v-.002h.002c.36069-.31151.65447-.69386.86719-1.17382v-.004l.002-.004c.18547-.48004.28711-1.04215.28711-1.67968 0-.59715-.10157-1.12205-.31055-1.58399l-.002-.002-.002-.002c-.2271-.45959-.5198-.85866-.87696-1.17187-.35892-.31473-.80245-.54907-1.29882-.71094h-.002l-.002-.002c-.49216-.14444-1.0096-.23047-1.56836-.23047zm15.67773 0v14.59375h1.13477v-7.12891h1.27929l4.48633 7.05274.0508.0762h1.35352l-4.58594-7.15039c.4742-.0226.9191-.085 1.32813-.20508.49434-.14508.9392-.35152 1.32031-.67187l.002-.002.002-.002c.35426-.31066.6532-.68989.86133-1.17187v-.004l.002-.002c.1913-.48099.29296-1.04411.29296-1.68164 0-.59715-.10352-1.1232-.31836-1.58594l-.002-.002c-.22709-.45959-.52175-.85866-.87891-1.17187-.35827-.31417-.79626-.54896-1.29296-.71094h-.002l-.002-.002c-.49663-.14418-1.0096-.23047-1.56836-.23047zm-276.15039.16211c-.83317 0-1.55808.2795-2.16406.8418-.59379.54981-.89844 1.26547-.89844 2.10156 0 .44306.10557.89009.31836 1.33203l.004.006.60546 1.02539.71094 1.07031-2.13476 1.57227-.008.006c-1.08078.9956-1.63086 2.0874-1.63086 3.2539 0 .9777.31736 1.77251.95313 2.38086.64519.60691 1.47405.91993 2.4668.91993h.002c1.38464 0 2.88935-.65046 4.47266-1.88477l1.20898 1.80664h1.33789l-1.66602-2.50781 2.12696-1.72461-.64063-.84375-2.06836 1.68945-2.92382-4.44336 1.31835-.90625h.002c1.20649-.81358 1.83203-1.72682 1.83203-2.73242 0-.93572-.29954-1.68987-.89649-2.20312-.59173-.50879-1.37736-.75977-2.32812-.75977zm-71.26563.77539c1.88106 0 3.40803.59746 4.59571 1.78516 1.18786 1.18786 1.76758 2.69227 1.76758 4.57422 0 1.90258-.58045 3.408-1.76758 4.5957-1.18727 1.16696-2.71375 1.74805-4.59571 1.74805-1.85949 0-3.38831-.60121-4.57617-1.78907-1.18803-1.18802-1.76757-2.68865-1.76758-4.55468 0-1.85951.60121-3.38636 1.78907-4.57422 1.18836-1.18837 2.69488-1.78516 4.55468-1.78516zm229.875 0c1.88103 0 3.40803.59746 4.59571 1.78516 1.18769 1.18769 1.76367 2.69197 1.76367 4.57422 0 1.90288-.57671 3.40817-1.76367 4.5957-1.18727 1.16696-2.71377 1.74805-4.59571 1.74805-1.86484 0-3.38813-.60104-4.57617-1.78907-1.18802-1.18802-1.76758-2.68865-1.76758-4.55468 0-1.85951.6012-3.38636 1.78907-4.57422 1.18852-1.18854 2.68955-1.78516 4.55468-1.78516zm56.33594.19922h3.78711c1.65633 0 2.95625.60672 3.96485 1.85351v.002h.002c.95236 1.14486 1.41992 2.58148 1.41992 4.28515 0 1.92539-.56151 3.42978-1.68555 4.57422-1.05661 1.07186-2.28215 1.5918-3.69922 1.5918h-3.7871zm-172.85156.0195h2.48828c.87408 0 1.54836.21109 2.04883.63867h.002l.002.002c.58315.47044.85937 1.08593.85937 1.90625 0 .81974-.2812 1.46313-.82227 1.93164-.5451.45106-1.24076.67773-2.08984.67773h-2.48828zm219.51562 0h2.3086c.39982 0 .78395.0554 1.15039.15039.36235.11459.65849.26606.92187.4707.2558.20279.46387.46206.60938.77735v.002c.14904.31249.22851.68882.22851 1.12695 0 .8678-.25162 1.51145-.72851 1.95508-.51028.45043-1.13767.67383-1.96484.67383h-2.5254zm15.67774 0h2.30664c.40473 0 .78425.0553 1.15625.15039.35832.11487.66118.26721.91797.4707.25957.20189.46157.46133.61328.7793.14423.31321.22266.68959.22266 1.12695 0 .86861-.24506 1.51179-.72657 1.95508-.50446.45003-1.13861.67383-1.96093.67383h-2.53125zm-277.26758.0781c.66889 0 1.18984.17366 1.57227.48437.37764.30304.55517.73683.55664 1.39844-.0206.23397-.0414.39695-.0801.47461l-.27149.49609c-.13853.17956-.26629.34516-.4082.46875v.002c-.17565.15559-.34795.28785-.5293.42774l-1.37109.92187-.68164-1.0332-.55664-.89258c-.1254-.23296-.19922-.52041-.19922-.87695 0-.53558.19396-.96296.58789-1.33789.38855-.35394.84149-.5332 1.38086-.5332zm58.5625 1.01562 2.66992 6.91797h-5.34179zm189.10938 0 2.67382 6.91797h-5.3457zm49.0996 0 2.67383 6.91797h-5.34765zm-297.65429 5.16211 2.97461 4.49805c-.17092.13626-.34295.27035-.48438.36328l-.006.004-.006.002c-.16902.13038-.33781.22668-.48828.33203-.99449.64249-1.96208.95117-2.88281.95117-.68493 0-1.21318-.20139-1.64648-.61523h-.002v-.002c-.42248-.38407-.63867-.90813-.63867-1.57422 0-.84415.38669-1.65701 1.22461-2.4746l.002-.002.002-.002c.1664-.17129.42292-.38688.75781-.64453.30068-.22773.72429-.51002 1.19336-.83594z"/><path d="m119.54688.00390625c-.0612 0-.12305.03515628-.14649.10546875l-1.68164 5.171875c-.10416.317708-.40169.53125-.74023.53125h-5.54688c-.14583 0-.20768.1920573-.0879.2753906l4.48437 3.265625c.27084.197916.38542.5475264.28126.8652344l-1.7129 5.259766c-.0417.140625.11459.25651.23438.167968l4.46289-3.25c.27083-.197916.64128-.197916.91211 0l4.47266 3.25c.11978.08855.28125-.02734.23437-.167968l-1.71875-5.265625c-.10417-.3177084.0104-.6653656.28125-.8632816l4.46875-3.2617188c.11979-.083333.058-.2753906-.0879-.2753906h-5.53711c-.33333 0-.63411-.213542-.73828-.53125l-1.6875-5.171875c-.0234-.07031247-.0853-.10546875-.14648-.10546875zm41.52539 0c-.0612 0-.1211.03515628-.14454.10546875l-1.68359 5.171875c-.10413.317708-.39975.53125-.73828.53125h-5.54688c-.14582 0-.20964.1920573-.0898.2753906l4.48438 3.265625c.27082.197916.38542.5475264.28125.8652344l-1.71289 5.259766c-.0469.140625.11453.25651.23437.167968l4.46289-3.25c.27084-.197916.64127-.197916.91211 0l4.47461 3.25c.11973.08855.28124-.02734.23437-.167968l-1.71875-5.265625c-.10413-.3177084.0107-.6653656.28125-.8632816l4.46875-3.2617188c.11974-.083333.056-.2753906-.0898-.2753906h-5.53516c-.33854 0-.63607-.213542-.74023-.53125l-1.6875-5.171875c-.0235-.07031247-.0853-.10546875-.14648-.10546875zm41.52734 0c-.0612 0-.12305.03515628-.14649.10546875l-1.68164 5.171875c-.10413.317708-.4017.53125-.74023.53125h-5.54687c-.14583 0-.2077.1920573-.0879.2753906l4.48438 3.265625c.27083.197916.38542.5475264.28125.8652344l-1.71484 5.259766c-.0469.140625.11453.25651.23437.167968l4.46484-3.25c.27084-.197916.63932-.197916.91016 0l4.47461 3.25c.11973.08855.28124-.02734.23437-.167968l-1.71874-5.265625c-.10414-.3177084.005-.6653656.28124-.8632816l4.46876-3.2617188c.11973-.0833333.05731-.2753906-.09376-.2753906h-5.53124c-.33855 0-.63608-.213542-.74024-.53125l-1.6875-5.171875c-.0235-.07031247-.0833-.10546875-.14453-.10546875zm41.52539 0c-.0612 0-.12304.03515628-.14648.10546875l-1.68164 5.171875c-.10414.317708-.40171.53125-.74024.53125h-5.54687c-.14583 0-.20769.1920573-.0879.2753906l4.48437 3.265625c.27083.197916.38542.5475264.28125.8652344l-1.71289 5.259766c-.0469.140625.11453.25651.23437.167968l4.4629-3.25c.27082-.197916.64126-.197916.9121 0l4.47266 3.25c.11973.08855.28126-.02734.23438-.167968l-1.71875-5.265625c-.10414-.3177084.0107-.6653656.28125-.8632816l4.46875-3.2617188c.11454-.0833333.05798-.2753906-.08788-.2753906h-5.53711c-.33855 0-.63413-.213542-.73829-.53125l-1.6875-5.171875c-.0235-.07031247-.0853-.10546875-.14648-.10546875z"/></g></g></svg>